<svg width="26" height="26" viewBox="0 0 26 26" fill="none" xmlns="http://www.w3.org/2000/svg">
<path d="M8.39584 2.7085C8.39584 2.49301 8.31024 2.28635 8.15787 2.13397C8.00549 1.9816 7.79883 1.896 7.58334 1.896C7.36785 1.896 7.16119 1.9816 7.00882 2.13397C6.85644 2.28635 6.77084 2.49301 6.77084 2.7085V4.42016C5.21084 4.54475 4.18817 4.85025 3.43634 5.60316C2.68342 6.355 2.37792 7.37875 2.25226 8.93766H23.7478C23.6221 7.37766 23.3166 6.355 22.5637 5.60316C21.8118 4.85025 20.7881 4.54475 19.2292 4.41908V2.7085C19.2292 2.49301 19.1436 2.28635 18.9912 2.13397C18.8388 1.9816 18.6322 1.896 18.4167 1.896C18.2012 1.896 17.9945 1.9816 17.8421 2.13397C17.6898 2.28635 17.6042 2.49301 17.6042 2.7085V4.34758C16.8838 4.3335 16.0756 4.3335 15.1667 4.3335H10.8333C9.92443 4.3335 9.11626 4.3335 8.39584 4.34758V2.7085Z" fill="white"/>
<path fill-rule="evenodd" clip-rule="evenodd" d="M2.16669 13C2.16669 12.0911 2.16669 11.2829 2.18077 10.5625H23.8193C23.8334 11.2829 23.8334 12.0911 23.8334 13V15.1667C23.8334 19.2519 23.8334 21.2951 22.5637 22.5637C21.2951 23.8333 19.2519 23.8333 15.1667 23.8333H10.8334C6.7481 23.8333 4.70494 23.8333 3.43635 22.5637C2.16669 21.2951 2.16669 19.2519 2.16669 15.1667V13ZM18.4167 15.1667C18.704 15.1667 18.9796 15.0525 19.1827 14.8494C19.3859 14.6462 19.5 14.3707 19.5 14.0833C19.5 13.796 19.3859 13.5205 19.1827 13.3173C18.9796 13.1141 18.704 13 18.4167 13C18.1294 13 17.8538 13.1141 17.6507 13.3173C17.4475 13.5205 17.3334 13.796 17.3334 14.0833C17.3334 14.3707 17.4475 14.6462 17.6507 14.8494C17.8538 15.0525 18.1294 15.1667 18.4167 15.1667ZM18.4167 19.5C18.704 19.5 18.9796 19.3859 19.1827 19.1827C19.3859 18.9795 19.5 18.704 19.5 18.4167C19.5 18.1293 19.3859 17.8538 19.1827 17.6506C18.9796 17.4475 18.704 17.3333 18.4167 17.3333C18.1294 17.3333 17.8538 17.4475 17.6507 17.6506C17.4475 17.8538 17.3334 18.1293 17.3334 18.4167C17.3334 18.704 17.4475 18.9795 17.6507 19.1827C17.8538 19.3859 18.1294 19.5 18.4167 19.5ZM14.0834 14.0833C14.0834 14.3707 13.9692 14.6462 13.7661 14.8494C13.5629 15.0525 13.2873 15.1667 13 15.1667C12.7127 15.1667 12.4372 15.0525 12.234 14.8494C12.0308 14.6462 11.9167 14.3707 11.9167 14.0833C11.9167 13.796 12.0308 13.5205 12.234 13.3173C12.4372 13.1141 12.7127 13 13 13C13.2873 13 13.5629 13.1141 13.7661 13.3173C13.9692 13.5205 14.0834 13.796 14.0834 14.0833ZM14.0834 18.4167C14.0834 18.704 13.9692 18.9795 13.7661 19.1827C13.5629 19.3859 13.2873 19.5 13 19.5C12.7127 19.5 12.4372 19.3859 12.234 19.1827C12.0308 18.9795 11.9167 18.704 11.9167 18.4167C11.9167 18.1293 12.0308 17.8538 12.234 17.6506C12.4372 17.4475 12.7127 17.3333 13 17.3333C13.2873 17.3333 13.5629 17.4475 13.7661 17.6506C13.9692 17.8538 14.0834 18.1293 14.0834 18.4167ZM7.58335 15.1667C7.87067 15.1667 8.14622 15.0525 8.34939 14.8494C8.55255 14.6462 8.66669 14.3707 8.66669 14.0833C8.66669 13.796 8.55255 13.5205 8.34939 13.3173C8.14622 13.1141 7.87067 13 7.58335 13C7.29604 13 7.02049 13.1141 6.81732 13.3173C6.61416 13.5205 6.50002 13.796 6.50002 14.0833C6.50002 14.3707 6.61416 14.6462 6.81732 14.8494C7.02049 15.0525 7.29604 15.1667 7.58335 15.1667ZM7.58335 19.5C7.87067 19.5 8.14622 19.3859 8.34939 19.1827C8.55255 18.9795 8.66669 18.704 8.66669 18.4167C8.66669 18.1293 8.55255 17.8538 8.34939 17.6506C8.14622 17.4475 7.87067 17.3333 7.58335 17.3333C7.29604 17.3333 7.02049 17.4475 6.81732 17.6506C6.61416 17.8538 6.50002 18.1293 6.50002 18.4167C6.50002 18.704 6.61416 18.9795 6.81732 19.1827C7.02049 19.3859 7.29604 19.5 7.58335 19.5Z" fill="white"/>
</svg>
