<svg width="50" height="50" viewBox="0 0 50 50" fill="none" xmlns="http://www.w3.org/2000/svg">
<circle cx="25" cy="25" r="25" fill="#277EFF"/>
<mask id="mask0_853_452" style="mask-type:luminance" maskUnits="userSpaceOnUse" x="15" y="17" width="20" height="16">
<path d="M26.8333 17.6665H23.1667C19.7099 17.6665 17.9811 17.6665 16.9077 18.7408C16.134 19.5136 15.9177 20.6264 15.8572 22.479H34.1428C34.0823 20.6264 33.866 19.5136 33.0923 18.7408C32.0189 17.6665 30.2901 17.6665 26.8333 17.6665ZM23.1667 32.3332H26.8333C30.2901 32.3332 32.0189 32.3332 33.0923 31.2588C34.1667 30.1854 34.1667 28.4566 34.1667 24.9998C34.1667 24.5947 34.1667 24.2133 34.1648 23.854H15.8352C15.8333 24.2133 15.8333 24.5947 15.8333 24.9998C15.8333 28.4566 15.8333 30.1854 16.9077 31.2588C17.9811 32.3332 19.7099 32.3332 23.1667 32.3332Z" fill="white"/>
<path fill-rule="evenodd" clip-rule="evenodd" d="M18.8125 28.6665C18.8125 28.4842 18.8849 28.3093 19.0139 28.1804C19.1428 28.0514 19.3177 27.979 19.5 27.979H23.1667C23.349 27.979 23.5239 28.0514 23.6528 28.1804C23.7817 28.3093 23.8542 28.4842 23.8542 28.6665C23.8542 28.8488 23.7817 29.0237 23.6528 29.1526C23.5239 29.2816 23.349 29.354 23.1667 29.354H19.5C19.3177 29.354 19.1428 29.2816 19.0139 29.1526C18.8849 29.0237 18.8125 28.8488 18.8125 28.6665ZM24.7708 28.6665C24.7708 28.4842 24.8433 28.3093 24.9722 28.1804C25.1011 28.0514 25.276 27.979 25.4583 27.979H26.8333C27.0157 27.979 27.1905 28.0514 27.3195 28.1804C27.4484 28.3093 27.5208 28.4842 27.5208 28.6665C27.5208 28.8488 27.4484 29.0237 27.3195 29.1526C27.1905 29.2816 27.0157 29.354 26.8333 29.354H25.4583C25.276 29.354 25.1011 29.2816 24.9722 29.1526C24.8433 29.0237 24.7708 28.8488 24.7708 28.6665Z" fill="black"/>
</mask>
<g mask="url(#mask0_853_452)">
<path d="M14 14H36V36H14V14Z" fill="white"/>
</g>
</svg>
