<svg width="22" height="22" viewBox="0 0 22 22" fill="none" xmlns="http://www.w3.org/2000/svg">
<g clip-path="url(#clip0_853_467)">
<path d="M6.11425 6C6.11425 4.67392 6.65609 3.40215 7.62056 2.46447C8.58504 1.52678 9.89315 1 11.2571 1C12.6211 1 13.9292 1.52678 14.8937 2.46447C15.8582 3.40215 16.4 4.67392 16.4 6C16.4 7.32608 15.8582 8.59785 14.8937 9.53553C13.9292 10.4732 12.6211 11 11.2571 11C9.89315 11 8.58504 10.4732 7.62056 9.53553C6.65609 8.59785 6.11425 7.32608 6.11425 6ZM4.90259 13.672C6.55139 12.694 8.79369 12 11.2571 12C11.7169 12 12.1695 12.024 12.6107 12.07C12.7874 12.0884 12.9562 12.151 13.1005 12.2517C13.2449 12.3524 13.36 12.4878 13.4346 12.6446C13.5092 12.8014 13.5407 12.9743 13.5261 13.1465C13.5115 13.3186 13.4513 13.4842 13.3513 13.627C12.6545 14.6212 12.2831 15.7969 12.2857 17C12.2857 17.92 12.4986 18.79 12.8771 19.567C12.9509 19.7184 12.9843 19.8853 12.9744 20.0525C12.9645 20.2198 12.9116 20.3819 12.8205 20.524C12.7294 20.6662 12.603 20.7838 12.4529 20.8661C12.3029 20.9484 12.134 20.9927 11.9617 20.995L11.2571 21C8.96443 21 6.79825 20.86 5.17516 20.442C4.36773 20.234 3.60762 19.936 3.03161 19.486C2.42167 19.01 1.99995 18.345 1.99995 17.5C1.99995 16.713 2.36818 15.977 2.86807 15.361C3.37619 14.736 4.0787 14.162 4.90259 13.672ZM16.4 17C16.4 16.7348 16.5084 16.4804 16.7013 16.2929C16.8941 16.1054 17.1558 16 17.4286 16H18.4469C19.0208 16 19.4857 16.452 19.4857 17.01V19.134C19.6818 19.2441 19.835 19.414 19.9217 19.6173C20.0083 19.8207 20.0235 20.0462 19.9649 20.2588C19.9063 20.4714 19.7772 20.6593 19.5976 20.7933C19.4179 20.9273 19.1978 21 18.9714 21H18.4674C18.1919 21 17.9277 20.8936 17.7328 20.7042C17.538 20.5148 17.4286 20.2579 17.4286 19.99V18C17.1558 18 16.8941 17.8946 16.7013 17.7071C16.5084 17.5196 16.4 17.2652 16.4 17ZM18.4571 13C18.195 13.0003 17.9428 13.0979 17.7522 13.2728C17.5616 13.4478 17.4468 13.687 17.4315 13.9414C17.4161 14.1958 17.5013 14.4464 17.6695 14.6418C17.8378 14.8373 18.0765 14.9629 18.3368 14.993L18.4592 15C18.7214 14.9997 18.9735 14.9021 19.1641 14.7272C19.3548 14.5522 19.4695 14.313 19.4849 14.0586C19.5002 13.8042 19.4151 13.5536 19.2468 13.3582C19.0785 13.1627 18.8399 13.0371 18.5795 13.007L18.4571 13Z" fill="#277EFF"/>
</g>
<defs>
<clipPath id="clip0_853_467">
<rect width="22" height="22" fill="white"/>
</clipPath>
</defs>
</svg>
