<svg width="22" height="22" viewBox="0 0 22 22" fill="none" xmlns="http://www.w3.org/2000/svg">
<path d="M17 15.1487C16.2404 15.1487 15.5552 15.4451 15.0356 15.9223L7.91 11.7495C7.9652 11.523 8 11.2868 8 11.0458C8 10.8048 7.9652 10.5698 7.91 10.3433L14.96 6.21147C15.512 6.73368 16.2416 7.02461 17 7.02482C18.6548 7.02482 20 5.67406 20 4.01241C20 2.35076 18.6548 1 17 1C15.3452 1 14 2.35076 14 4.01241C14 4.2534 14.0348 4.48958 14.09 4.71491L7.04 8.84673C6.48771 8.32504 5.75825 8.0342 5 8.03338C3.3452 8.03338 2 9.38414 2 11.0458C2 12.7074 3.3452 14.0582 5 14.0582C5.75837 14.058 6.48804 13.7671 7.04 13.2449L14.1656 17.4176C14.1131 17.633 14.0861 17.8538 14.0852 18.0756C14.0854 18.6541 14.2565 19.2196 14.5767 19.7005C14.897 20.1814 15.352 20.5562 15.8844 20.7775C16.4167 20.9988 17.0024 21.0567 17.5675 20.9437C18.1326 20.8308 18.6516 20.5522 19.059 20.1431C19.4664 19.734 19.7439 19.2128 19.8564 18.6454C19.9688 18.078 19.9112 17.4898 19.6908 16.9553C19.4705 16.4208 19.0972 15.9638 18.6183 15.6423C18.1393 15.3207 17.5762 15.1489 17 15.1487Z" fill="white"/>
</svg>
