<svg width="22" height="22" viewBox="0 0 22 22" fill="none" xmlns="http://www.w3.org/2000/svg">
<path d="M9.90275 2.68353C10.2122 2.43002 10.5999 2.2915 11 2.2915C11.4001 2.2915 11.7878 2.43002 12.0972 2.68353L18.1358 7.60694C18.3413 7.7754 18.5067 7.98744 18.6201 8.2277C18.7336 8.46797 18.7922 8.73045 18.7917 8.99615V17.9268C18.7917 18.9108 18.007 19.7083 17.0385 19.7083H4.96146C3.99346 19.7083 3.20833 18.9108 3.20833 17.9268V8.99615C3.20783 8.73045 3.26642 8.46797 3.37986 8.2277C3.49329 7.98744 3.65874 7.7754 3.86421 7.60694L9.90275 2.68353ZM8.82291 11.2292C8.82291 10.9556 8.71427 10.6933 8.52087 10.4999C8.32747 10.3066 8.06517 10.1979 7.79166 10.1979C7.51816 10.1979 7.25586 10.3066 7.06246 10.4999C6.86906 10.6933 6.76041 10.9556 6.76041 11.2292C6.76041 11.5027 6.86906 11.765 7.06246 11.9584C7.25586 12.1518 7.51816 12.2604 7.79166 12.2604C8.06517 12.2604 8.32747 12.1518 8.52087 11.9584C8.71427 11.765 8.82291 11.5027 8.82291 11.2292ZM12.0312 11.2292C12.0312 10.9556 11.9226 10.6933 11.7292 10.4999C11.5358 10.3066 11.2735 10.1979 11 10.1979C10.7265 10.1979 10.4642 10.3066 10.2708 10.4999C10.0774 10.6933 9.96875 10.9556 9.96875 11.2292C9.96875 11.5027 10.0774 11.765 10.2708 11.9584C10.4642 12.1518 10.7265 12.2604 11 12.2604C11.2735 12.2604 11.5358 12.1518 11.7292 11.9584C11.9226 11.765 12.0312 11.5027 12.0312 11.2292ZM15.2396 11.2292C15.2396 10.9556 15.1309 10.6933 14.9375 10.4999C14.7441 10.3066 14.4818 10.1979 14.2083 10.1979C13.9348 10.1979 13.6725 10.3066 13.4791 10.4999C13.2857 10.6933 13.1771 10.9556 13.1771 11.2292C13.1771 11.5027 13.2857 11.765 13.4791 11.9584C13.6725 12.1518 13.9348 12.2604 14.2083 12.2604C14.4818 12.2604 14.7441 12.1518 14.9375 11.9584C15.1309 11.765 15.2396 11.5027 15.2396 11.2292ZM12.0312 14.4375C12.0312 14.164 11.9226 13.9017 11.7292 13.7083C11.5358 13.5149 11.2735 13.4062 11 13.4062C10.7265 13.4062 10.4642 13.5149 10.2708 13.7083C10.0774 13.9017 9.96875 14.164 9.96875 14.4375C9.96875 14.711 10.0774 14.9733 10.2708 15.1667C10.4642 15.3601 10.7265 15.4687 11 15.4687C11.2735 15.4687 11.5358 15.3601 11.7292 15.1667C11.9226 14.9733 12.0312 14.711 12.0312 14.4375ZM8.82291 14.4375C8.82291 14.164 8.71427 13.9017 8.52087 13.7083C8.32747 13.5149 8.06517 13.4062 7.79166 13.4062C7.51816 13.4062 7.25586 13.5149 7.06246 13.7083C6.86906 13.9017 6.76041 14.164 6.76041 14.4375C6.76041 14.711 6.86906 14.9733 7.06246 15.1667C7.25586 15.3601 7.51816 15.4687 7.79166 15.4687C8.06517 15.4687 8.32747 15.3601 8.52087 15.1667C8.71427 14.9733 8.82291 14.711 8.82291 14.4375ZM15.2396 14.4375C15.2396 14.164 15.1309 13.9017 14.9375 13.7083C14.7441 13.5149 14.4818 13.4062 14.2083 13.4062C13.9348 13.4062 13.6725 13.5149 13.4791 13.7083C13.2857 13.9017 13.1771 14.164 13.1771 14.4375C13.1771 14.711 13.2857 14.9733 13.4791 15.1667C13.6725 15.3601 13.9348 15.4687 14.2083 15.4687C14.4818 15.4687 14.7441 15.3601 14.9375 15.1667C15.1309 14.9733 15.2396 14.711 15.2396 14.4375Z" fill="#277EFF"/>
</svg>
