<svg width="22" height="22" viewBox="0 0 22 22" fill="none" xmlns="http://www.w3.org/2000/svg">
<path d="M10.1852 11.2117V6.3316H8.81336C7.29379 6.3316 6.49275 5.34632 6.49275 4.38892C6.49275 3.3946 7.22936 2.80532 8.21464 2.80532C9.34725 2.80532 10.2312 3.67982 10.2312 5.144V6.3316H11.7688V5.144C11.7688 3.67982 12.6528 2.80532 13.7854 2.80532C14.7706 2.80532 15.5163 3.3946 15.5163 4.38853C15.5163 5.34632 14.6874 6.3316 13.1866 6.3316H11.8148V11.2121H18.3064C19.3097 11.2121 19.853 10.8255 19.853 9.84021V7.70385C19.853 6.72799 19.3097 6.332 18.3064 6.332H16.161C16.7318 5.81657 17.0724 5.1165 17.0724 4.3245C17.0724 2.5476 15.6636 1.26807 13.8773 1.26807C12.5514 1.26807 11.4742 2.00428 11.0047 3.3121C10.5349 2.00467 9.44861 1.26807 8.12272 1.26807C6.34543 1.26807 4.92761 2.5476 4.92761 4.3245C4.92761 5.1165 5.25918 5.81657 5.83904 6.332H3.69404C2.74529 6.332 2.14697 6.72799 2.14697 7.70385V9.84021C2.14697 10.8255 2.69932 11.2121 3.69364 11.2121L10.1852 11.2117ZM10.1852 20.7322V12.197H3.46343V18.3935C3.46343 19.9311 4.36582 20.7322 5.90347 20.7322H10.1852ZM11.8148 12.197V20.7322H16.0965C17.6342 20.7322 18.5362 19.9311 18.5362 18.3935V12.197H11.8148Z" fill="#B2C3FF"/>
</svg>
