<svg width="22" height="22" viewBox="0 0 22 22" fill="none" xmlns="http://www.w3.org/2000/svg">
<path fill-rule="evenodd" clip-rule="evenodd" d="M12.6528 4.88876C12.6528 3.20209 14.0278 1.8335 15.7218 1.8335C16.1239 1.83254 16.5224 1.9108 16.8943 2.06382C17.2663 2.21684 17.6044 2.44162 17.8895 2.72533C18.1745 3.00903 18.4009 3.34611 18.5557 3.71731C18.7105 4.08851 18.7907 4.48657 18.7917 4.88876C18.7917 6.57634 17.4167 7.94492 15.7218 7.94492C15.3153 7.94542 14.9128 7.86513 14.5376 7.70871C14.1625 7.55229 13.8221 7.32286 13.5364 7.03375L9.28767 9.92676C9.406 10.5162 9.34797 11.1274 9.12084 11.684L13.7793 14.7457C14.328 14.2982 15.0146 14.0543 15.7227 14.0554C16.1249 14.0546 16.5233 14.133 16.8952 14.2861C17.2671 14.4392 17.6051 14.6641 17.8901 14.9479C18.1751 15.2317 18.4014 15.5688 18.5561 15.9401C18.7108 16.3113 18.7908 16.7094 18.7917 17.1116C18.7917 18.7983 17.4167 20.1668 15.7218 20.1668C14.9097 20.1685 14.1301 19.8476 13.5546 19.2747C12.9791 18.7017 12.6547 17.9237 12.6528 17.1116C12.652 16.6832 12.7423 16.2595 12.9177 15.8686L8.29584 12.8335C7.73613 13.3202 7.01903 13.5875 6.27734 13.5861C5.87512 13.5871 5.47665 13.5088 5.1047 13.3557C4.73276 13.2026 4.39462 12.9777 4.10961 12.6939C3.82461 12.4101 3.59831 12.0729 3.44367 11.7016C3.28902 11.3303 3.20906 10.9321 3.20834 10.5299C3.20918 10.1278 3.28923 9.72974 3.44393 9.35855C3.59863 8.98735 3.82494 8.65027 4.10994 8.36655C4.39493 8.08283 4.73303 7.85804 5.10492 7.70501C5.4768 7.55198 5.87519 7.47371 6.27734 7.47467C7.25267 7.47467 8.11984 7.92659 8.68175 8.63059L12.8003 5.8265C12.7023 5.52358 12.6525 5.20714 12.6528 4.88876Z" fill="#277EFF"/>
</svg>
