<svg width="22" height="22" viewBox="0 0 22 22" fill="none" xmlns="http://www.w3.org/2000/svg">
<path d="M20 6.15385V20H11.6923V6.15385H14.4615C14.6562 6.15385 14.8365 6.11779 15.0024 6.04567C15.1683 5.97356 15.3125 5.8762 15.4351 5.75361C15.5577 5.63101 15.6587 5.48317 15.738 5.3101C15.8173 5.13702 15.8534 4.95673 15.8462 4.76923C15.8462 4.57452 15.8101 4.39423 15.738 4.22837C15.6659 4.0625 15.5685 3.91827 15.4459 3.79567C15.3233 3.67308 15.1755 3.57212 15.0024 3.49279C14.8293 3.41346 14.649 3.3774 14.4615 3.38462C14.0793 3.38462 13.7224 3.45673 13.3906 3.60096C13.0589 3.74519 12.7632 3.94351 12.5036 4.19591C12.244 4.44832 12.0457 4.74038 11.9087 5.07212C11.7716 5.40385 11.6995 5.76442 11.6923 6.15385H10.3077C10.3077 5.77163 10.2356 5.41466 10.0913 5.08293C9.94712 4.7512 9.7488 4.45553 9.49639 4.19591C9.24399 3.9363 8.95192 3.73798 8.62019 3.60096C8.28846 3.46394 7.92788 3.39183 7.53846 3.38462C7.34375 3.38462 7.16346 3.42067 6.9976 3.49279C6.83173 3.5649 6.6875 3.66226 6.5649 3.78486C6.44231 3.90745 6.34135 4.05529 6.26202 4.22837C6.18269 4.40144 6.14663 4.58173 6.15385 4.76923C6.15385 4.96394 6.1899 5.14423 6.26202 5.3101C6.33413 5.47596 6.43149 5.62019 6.55409 5.74279C6.67668 5.86538 6.82452 5.96635 6.9976 6.04567C7.17067 6.125 7.35096 6.16106 7.53846 6.15385H10.3077V20H2V6.15385H5.15865C4.90625 5.72837 4.78005 5.26683 4.78005 4.76923C4.78005 4.38702 4.85216 4.03005 4.99639 3.69832C5.14062 3.36659 5.33534 3.07091 5.58053 2.8113C5.82572 2.55168 6.11779 2.35337 6.45673 2.21635C6.79567 2.07933 7.15625 2.00721 7.53846 2C8.23798 2 8.89062 2.16226 9.49639 2.48678C10.1022 2.8113 10.6034 3.26923 11 3.86058C11.3894 3.27644 11.887 2.82212 12.4928 2.4976C13.0986 2.17308 13.7548 2.00721 14.4615 2C14.8438 2 15.2007 2.07212 15.5325 2.21635C15.8642 2.36058 16.1599 2.55889 16.4195 2.8113C16.6791 3.0637 16.8774 3.35577 17.0144 3.6875C17.1514 4.01923 17.2236 4.37981 17.2308 4.76923C17.2308 5.01442 17.1983 5.2524 17.1334 5.48317C17.0685 5.71394 16.9712 5.9375 16.8413 6.15385H20Z" fill="white"/>
</svg>
