<svg width="22" height="22" viewBox="0 0 22 22" fill="none" xmlns="http://www.w3.org/2000/svg">
<g clip-path="url(#clip0_453_1413)">
<path d="M6.1143 6C6.1143 4.67392 6.65613 3.40215 7.62061 2.46447C8.58508 1.52678 9.89319 1 11.2572 1C12.6211 1 13.9292 1.52678 14.8937 2.46447C15.8582 3.40215 16.4 4.67392 16.4 6C16.4 7.32608 15.8582 8.59785 14.8937 9.53553C13.9292 10.4732 12.6211 11 11.2572 11C9.89319 11 8.58508 10.4732 7.62061 9.53553C6.65613 8.59785 6.1143 7.32608 6.1143 6ZM4.90264 13.672C6.55144 12.694 8.79373 12 11.2572 12C11.7169 12 12.1695 12.024 12.6108 12.07C12.7874 12.0884 12.9562 12.151 13.1006 12.2517C13.245 12.3524 13.3601 12.4878 13.4347 12.6446C13.5092 12.8014 13.5408 12.9743 13.5262 13.1465C13.5116 13.3186 13.4513 13.4842 13.3513 13.627C12.6546 14.6212 12.2831 15.7969 12.2857 17C12.2857 17.92 12.4987 18.79 12.8772 19.567C12.9509 19.7184 12.9844 19.8853 12.9745 20.0525C12.9646 20.2198 12.9117 20.3819 12.8205 20.524C12.7294 20.6662 12.603 20.7838 12.453 20.8661C12.3029 20.9484 12.134 20.9927 11.9617 20.995L11.2572 21C8.96448 21 6.7983 20.86 5.17521 20.442C4.36778 20.234 3.60766 19.936 3.03166 19.486C2.42172 19.01 2 18.345 2 17.5C2 16.713 2.36823 15.977 2.86812 15.361C3.37623 14.736 4.07875 14.162 4.90264 13.672ZM16.4 17C16.4 16.7348 16.5084 16.4804 16.7013 16.2929C16.8942 16.1054 17.1558 16 17.4286 16H18.4469C19.0208 16 19.4858 16.452 19.4858 17.01V19.134C19.6818 19.2441 19.8351 19.414 19.9217 19.6173C20.0084 19.8207 20.0236 20.0462 19.965 20.2588C19.9064 20.4714 19.7772 20.6593 19.5976 20.7933C19.418 20.9273 19.1979 21 18.9715 21H18.4675C18.1919 21 17.9277 20.8936 17.7329 20.7042C17.5381 20.5148 17.4286 20.2579 17.4286 19.99V18C17.1558 18 16.8942 17.8946 16.7013 17.7071C16.5084 17.5196 16.4 17.2652 16.4 17ZM18.4572 13C18.195 13.0003 17.9429 13.0979 17.7522 13.2728C17.5616 13.4478 17.4469 13.687 17.4315 13.9414C17.4162 14.1958 17.5013 14.4464 17.6696 14.6418C17.8378 14.8373 18.0765 14.9629 18.3368 14.993L18.4592 15C18.7214 14.9997 18.9736 14.9021 19.1642 14.7272C19.3548 14.5522 19.4695 14.313 19.4849 14.0586C19.5003 13.8042 19.4151 13.5536 19.2469 13.3582C19.0786 13.1627 18.8399 13.0371 18.5796 13.007L18.4572 13Z" fill="white"/>
</g>
<defs>
<clipPath id="clip0_453_1413">
<rect width="22" height="22" fill="white"/>
</clipPath>
</defs>
</svg>
