<svg width="66" height="18" viewBox="0 0 66 18" fill="none" xmlns="http://www.w3.org/2000/svg">
<path d="M11.5312 3.9375L6.46875 9L11.5312 14.0625" stroke="white" stroke-width="1.6875" stroke-linecap="round" stroke-linejoin="round"/>
<path d="M21.0387 13V3.54545H24.5011C25.172 3.54545 25.7275 3.65625 26.1676 3.87784C26.6077 4.09635 26.937 4.39335 27.1555 4.76882C27.3741 5.14122 27.4833 5.56132 27.4833 6.02912C27.4833 6.42306 27.411 6.75544 27.2663 7.02628C27.1217 7.29403 26.9278 7.50947 26.6847 7.67258C26.4446 7.83262 26.1799 7.94957 25.8906 8.02344V8.11577C26.2045 8.13116 26.5108 8.23272 26.8093 8.42045C27.1109 8.60511 27.3602 8.86825 27.5572 9.20987C27.7541 9.55149 27.8526 9.96697 27.8526 10.4563C27.8526 10.9395 27.7388 11.3735 27.511 11.7582C27.2863 12.1398 26.9386 12.4429 26.4677 12.6676C25.9968 12.8892 25.3951 13 24.6626 13H21.0387ZM22.4652 11.7766H24.5241C25.2074 11.7766 25.6967 11.6443 25.9922 11.3796C26.2876 11.1149 26.4354 10.7841 26.4354 10.3871C26.4354 10.0885 26.36 9.81463 26.2092 9.56534C26.0584 9.31605 25.8429 9.11754 25.5629 8.96982C25.2859 8.82209 24.9566 8.74822 24.5749 8.74822H22.4652V11.7766ZM22.4652 7.63565H24.3764C24.6965 7.63565 24.9843 7.5741 25.2397 7.45099C25.4982 7.32789 25.7029 7.15554 25.8537 6.93395C26.0076 6.70928 26.0845 6.4446 26.0845 6.13991C26.0845 5.74905 25.9476 5.42128 25.6737 5.15661C25.3997 4.89193 24.9796 4.75959 24.4134 4.75959H22.4652V7.63565ZM31.4973 13.157C31.048 13.157 30.6417 13.0739 30.2786 12.9077C29.9154 12.7384 29.6277 12.4937 29.4153 12.1737C29.206 11.8536 29.1014 11.4612 29.1014 10.9964C29.1014 10.5964 29.1783 10.267 29.3322 10.0085C29.4861 9.75 29.6938 9.54534 29.9554 9.39453C30.217 9.24373 30.5094 9.12985 30.8326 9.05291C31.1557 8.97597 31.485 8.9175 31.8205 8.87749C32.2452 8.82824 32.5899 8.78823 32.8546 8.75746C33.1193 8.7236 33.3116 8.66974 33.4316 8.59588C33.5517 8.52202 33.6117 8.40199 33.6117 8.2358V8.20348C33.6117 7.80031 33.4978 7.48793 33.2701 7.26633C33.0454 7.04474 32.7099 6.93395 32.2637 6.93395C31.7989 6.93395 31.4327 7.03705 31.165 7.24325C30.9003 7.44638 30.7172 7.67259 30.6156 7.92188L29.3184 7.62642C29.4722 7.19555 29.6969 6.84777 29.9924 6.5831C30.2909 6.31534 30.6341 6.12145 31.0218 6.00142C31.4096 5.87831 31.8174 5.81676 32.2452 5.81676C32.5283 5.81676 32.8284 5.85062 33.1454 5.91832C33.4655 5.98295 33.764 6.10298 34.041 6.27841C34.3211 6.45383 34.5504 6.70466 34.7289 7.03089C34.9074 7.35405 34.9966 7.77415 34.9966 8.29119V13H33.6486V12.0305H33.5932C33.504 12.209 33.3701 12.3845 33.1916 12.5568C33.0131 12.7292 32.7838 12.8723 32.5037 12.9862C32.2237 13.1 31.8882 13.157 31.4973 13.157ZM31.7974 12.049C32.179 12.049 32.5053 11.9736 32.7761 11.8228C33.05 11.672 33.2578 11.475 33.3993 11.2319C33.544 10.9857 33.6163 10.7225 33.6163 10.4425V9.52841C33.5671 9.57765 33.4717 9.62382 33.3301 9.6669C33.1916 9.70691 33.0331 9.74231 32.8546 9.77308C32.6761 9.80078 32.5022 9.82694 32.3329 9.85156C32.1636 9.87311 32.0221 9.89157 31.9082 9.90696C31.6404 9.94081 31.3958 9.99775 31.1742 10.0778C30.9557 10.1578 30.7802 10.2732 30.6479 10.424C30.5186 10.5717 30.454 10.7687 30.454 11.0149C30.454 11.3565 30.5802 11.6151 30.8326 11.7905C31.0849 11.9628 31.4065 12.049 31.7974 12.049ZM39.822 13.1431C39.1357 13.1431 38.5448 12.9877 38.0493 12.6768C37.5568 12.3629 37.1783 11.9305 36.9136 11.3796C36.6489 10.8287 36.5166 10.1978 36.5166 9.48686C36.5166 8.76669 36.652 8.13115 36.9229 7.58026C37.1937 7.02628 37.5753 6.59387 38.0677 6.28303C38.5602 5.97218 39.1403 5.81676 39.8081 5.81676C40.3467 5.81676 40.8269 5.91679 41.2485 6.11683C41.6701 6.3138 42.0102 6.59079 42.2687 6.9478C42.5303 7.30481 42.6858 7.72183 42.735 8.19886H41.3916C41.3177 7.86648 41.1485 7.58026 40.8838 7.3402C40.6222 7.10014 40.2713 6.98011 39.8312 6.98011C39.4465 6.98011 39.1095 7.08168 38.8202 7.2848C38.534 7.48485 38.3109 7.77107 38.1508 8.14347C37.9908 8.51278 37.9108 8.94981 37.9108 9.45455C37.9108 9.97159 37.9893 10.4179 38.1462 10.7933C38.3032 11.1688 38.5248 11.4596 38.811 11.6658C39.1003 11.872 39.4404 11.9751 39.8312 11.9751C40.0928 11.9751 40.3298 11.9274 40.5422 11.832C40.7576 11.7335 40.9376 11.5935 41.0823 11.4119C41.23 11.2304 41.3331 11.0118 41.3916 10.7564H42.735C42.6858 11.215 42.5365 11.6243 42.2872 11.9844C42.0379 12.3445 41.704 12.6276 41.2854 12.8338C40.8699 13.04 40.3821 13.1431 39.822 13.1431ZM45.4806 10.5948L45.4714 8.9098H45.7115L48.5368 5.90909H50.1895L46.9672 9.32528H46.7502L45.4806 10.5948ZM44.2111 13V3.54545H45.5914V13H44.2111ZM48.6891 13L46.15 9.62997L47.101 8.66513L50.3833 13H48.6891Z" fill="white"/>
</svg>
