<svg width="24" height="24" viewBox="0 0 24 24" fill="none" xmlns="http://www.w3.org/2000/svg">
<g clip-path="url(#clip0_133_178)">
<path d="M13.333 12.001L16.226 9.10801C16.3179 9.02148 16.3915 8.91738 16.4424 8.80189C16.4934 8.68639 16.5206 8.56185 16.5225 8.43564C16.5244 8.30943 16.5009 8.18412 16.4535 8.06715C16.4061 7.95017 16.3356 7.84391 16.2464 7.75465C16.1571 7.6654 16.0509 7.59497 15.9339 7.54755C15.8169 7.50012 15.6916 7.47666 15.5654 7.47856C15.4392 7.48046 15.3146 7.50768 15.1992 7.5586C15.0837 7.60952 14.9796 7.68311 14.893 7.77501L12.001 10.667L9.10803 7.77501C8.92952 7.60693 8.69256 7.51499 8.4474 7.51867C8.20224 7.52236 7.96816 7.62139 7.79478 7.79477C7.62141 7.96814 7.52238 8.20222 7.51869 8.44738C7.515 8.69254 7.60695 8.9295 7.77503 9.10801L10.667 12.001L7.77503 14.893C7.59982 15.0706 7.50159 15.31 7.50159 15.5595C7.50159 15.809 7.59982 16.0484 7.77503 16.226C7.86245 16.3137 7.96632 16.3833 8.0807 16.4308C8.19507 16.4783 8.31769 16.5027 8.44153 16.5027C8.56537 16.5027 8.68799 16.4783 8.80236 16.4308C8.91673 16.3833 9.02061 16.3137 9.10803 16.226L12.001 13.333L14.893 16.226C14.9804 16.3137 15.0843 16.3833 15.1987 16.4308C15.3131 16.4783 15.4357 16.5027 15.5595 16.5027C15.6834 16.5027 15.806 16.4783 15.9204 16.4308C16.0347 16.3833 16.1386 16.3137 16.226 16.226C16.4012 16.0484 16.4995 15.809 16.4995 15.5595C16.4995 15.31 16.4012 15.0706 16.226 14.893L13.333 12.001Z" fill="#97A1C2"/>
</g>
<defs>
<clipPath id="clip0_133_178">
<rect width="24" height="24" fill="white"/>
</clipPath>
</defs>
</svg>
