<svg width="18" height="18" viewBox="0 0 18 18" fill="none" xmlns="http://www.w3.org/2000/svg">
<path d="M9 2.25V15.75C6.375 15.75 4.42462 12.315 4.42462 12.315H2.25C2.05109 12.315 1.86032 12.236 1.71967 12.0953C1.57902 11.9547 1.5 11.7639 1.5 11.565V6.37875C1.5 6.17984 1.57902 5.98907 1.71967 5.84842C1.86032 5.70777 2.05109 5.62875 2.25 5.62875H4.42462C4.42462 5.62875 6.375 2.25 9 2.25Z" fill="white" stroke="white" stroke-width="1.5" stroke-linejoin="round"/>
<path d="M12 5.625C12.2345 5.8345 12.4461 6.06817 12.6315 6.32212C13.1983 7.09974 13.5025 8.03775 13.5 9C13.5 9.99525 13.1828 10.9151 12.6458 11.6588C12.4569 11.9201 12.2404 12.1602 12 12.375" stroke="white" stroke-width="1.5" stroke-linecap="round" stroke-linejoin="round"/>
<path d="M12.8385 15.4447C15.0315 14.136 16.5 11.7394 16.5 8.99999C16.5 6.30299 15.0765 3.93899 12.9401 2.61749" stroke="white" stroke-width="1.5" stroke-linecap="round"/>
</svg>
