<svg width="18" height="18" viewBox="0 0 18 18" fill="none" xmlns="http://www.w3.org/2000/svg">
<path d="M5.14875 5.16149C6.03709 4.27021 7.20706 3.71463 8.4592 3.58948C9.71134 3.46432 10.9681 3.77734 12.0153 4.47516C13.0625 5.17298 13.8352 6.21241 14.2017 7.41622C14.5683 8.62004 14.5059 9.91372 14.0253 11.0767C13.5447 12.2397 12.6756 13.2 11.5662 13.7939C10.4568 14.3878 9.17569 14.5785 7.94138 14.3335C6.70708 14.0885 5.59596 13.423 4.79745 12.4504C3.99895 11.4778 3.56249 10.2584 3.5625 8.99999C3.5625 8.85081 3.50324 8.70773 3.39775 8.60225C3.29226 8.49676 3.14918 8.43749 3 8.43749C2.85082 8.43749 2.70774 8.49676 2.60225 8.60225C2.49676 8.70773 2.4375 8.85081 2.4375 8.99999C2.43744 10.5188 2.96417 11.9905 3.92788 13.1644C4.8916 14.3382 6.23263 15.1415 7.72234 15.4372C9.21205 15.7329 10.7582 15.5027 12.0972 14.7859C13.4362 14.0691 14.4851 12.9101 15.0651 11.5064C15.6451 10.1028 15.7203 8.54139 15.2779 7.08849C14.8354 5.63559 13.9027 4.38113 12.6388 3.53899C11.3749 2.69685 9.85803 2.31917 8.3468 2.47034C6.83557 2.62152 5.42355 3.29218 4.3515 4.36799C4.33261 4.38674 4.31507 4.40679 4.299 4.42799L3.35625 3.48449C3.30583 3.43396 3.24204 3.39887 3.17237 3.38334C3.10269 3.36781 3.03004 3.37249 2.96293 3.39683C2.89583 3.42116 2.83706 3.46415 2.79354 3.52073C2.75002 3.57731 2.72355 3.64514 2.71725 3.71624L2.4525 6.63299C2.44755 6.68771 2.45469 6.74285 2.4734 6.79451C2.49212 6.84617 2.52196 6.89308 2.56081 6.93193C2.59966 6.97078 2.64658 7.00062 2.69823 7.01934C2.74989 7.03805 2.80503 7.04519 2.85975 7.04024L5.77725 6.77474C5.84808 6.76807 5.91554 6.74139 5.97177 6.69781C6.028 6.65424 6.07068 6.59557 6.09482 6.52865C6.11896 6.46173 6.12357 6.38933 6.10811 6.31989C6.09265 6.25045 6.05775 6.18684 6.0075 6.13649L5.0865 5.21549C5.10853 5.19902 5.12934 5.18098 5.14875 5.16149Z" fill="#636060"/>
<path d="M9.5625 5.25C9.5625 5.10082 9.50324 4.95774 9.39775 4.85225C9.29226 4.74676 9.14918 4.6875 9 4.6875C8.85082 4.6875 8.70774 4.74676 8.60225 4.85225C8.49676 4.95774 8.4375 5.10082 8.4375 5.25V9C8.43746 9.09537 8.46167 9.18918 8.50785 9.27262C8.55403 9.35606 8.62067 9.42639 8.7015 9.477L10.9515 10.8832C11.078 10.9624 11.2308 10.9881 11.3762 10.9546C11.4482 10.938 11.5163 10.9074 11.5765 10.8646C11.6366 10.8217 11.6878 10.7674 11.727 10.7048C11.7662 10.6421 11.7927 10.5724 11.8049 10.4995C11.8172 10.4266 11.8149 10.352 11.7984 10.28C11.7818 10.208 11.7512 10.14 11.7083 10.0798C11.6654 10.0196 11.6111 9.96845 11.5485 9.92925L9.5625 8.688V5.25Z" fill="#636060"/>
</svg>
