<svg width="28" height="28" viewBox="0 0 28 28" fill="none" xmlns="http://www.w3.org/2000/svg">
<path fill-rule="evenodd" clip-rule="evenodd" d="M4.19995 7.00001C4.19995 6.6287 4.34745 6.27261 4.61 6.01006C4.87255 5.74751 5.22865 5.60001 5.59995 5.60001H22.4C22.7713 5.60001 23.1273 5.74751 23.3899 6.01006C23.6525 6.27261 23.8 6.6287 23.8 7.00001C23.8 7.37131 23.6525 7.7274 23.3899 7.98996C23.1273 8.25251 22.7713 8.40001 22.4 8.40001H5.59995C5.22865 8.40001 4.87255 8.25251 4.61 7.98996C4.34745 7.7274 4.19995 7.37131 4.19995 7.00001ZM4.19995 14C4.19995 13.6287 4.34745 13.2726 4.61 13.0101C4.87255 12.7475 5.22865 12.6 5.59995 12.6H22.4C22.7713 12.6 23.1273 12.7475 23.3899 13.0101C23.6525 13.2726 23.8 13.6287 23.8 14C23.8 14.3713 23.6525 14.7274 23.3899 14.99C23.1273 15.2525 22.7713 15.4 22.4 15.4H5.59995C5.22865 15.4 4.87255 15.2525 4.61 14.99C4.34745 14.7274 4.19995 14.3713 4.19995 14ZM4.19995 21C4.19995 20.6287 4.34745 20.2726 4.61 20.0101C4.87255 19.7475 5.22865 19.6 5.59995 19.6H22.4C22.7713 19.6 23.1273 19.7475 23.3899 20.0101C23.6525 20.2726 23.8 20.6287 23.8 21C23.8 21.3713 23.6525 21.7274 23.3899 21.99C23.1273 22.2525 22.7713 22.4 22.4 22.4H5.59995C5.22865 22.4 4.87255 22.2525 4.61 21.99C4.34745 21.7274 4.19995 21.3713 4.19995 21Z" fill="white"/>
</svg>
