<svg width="84" height="19" viewBox="0 0 84 19" fill="none" xmlns="http://www.w3.org/2000/svg">
<path d="M7.9 9.9C9.00667 11.62 10.0067 13.0667 10.9 14.24L10.86 14.6C9.84667 14.9333 8.77333 15.14 7.64 15.22L7.32 14.96C6.52 13.4667 5.82667 12.1 5.24 10.86H3.54L3.66 15H0.4L0.58 11.18L0.4 2.1L5.84 2.08C7.24 2.08 8.31333 2.42 9.06 3.1C9.82 3.76667 10.2 4.72667 10.2 5.98C10.2 6.76667 10 7.5 9.6 8.18C9.2 8.86 8.63333 9.43333 7.9 9.9ZM3.6 8.42L5.34 8.5C5.83333 8.31333 6.19333 8.04 6.42 7.68C6.66 7.32 6.78 6.85333 6.78 6.28C6.78 5.65333 6.61333 5.19333 6.28 4.9C5.96 4.59333 5.45333 4.42667 4.76 4.4L3.68 4.46L3.6 8.42ZM15.6039 5.44C17.0172 5.44 18.0906 5.84 18.8239 6.64C19.5706 7.44 19.9439 8.60667 19.9439 10.14C19.9439 11.7933 19.5439 13.0533 18.7439 13.92C17.9572 14.7867 16.8106 15.22 15.3039 15.22C13.8906 15.22 12.8106 14.82 12.0639 14.02C11.3306 13.22 10.9639 12.06 10.9639 10.54C10.9639 8.88667 11.3572 7.62667 12.1439 6.76C12.9439 5.88 14.0972 5.44 15.6039 5.44ZM15.3839 7.58C14.8506 7.58 14.4706 7.76 14.2439 8.12C14.0306 8.46667 13.9239 9.08 13.9239 9.96C13.9239 10.7733 13.9706 11.4133 14.0639 11.88C14.1706 12.3333 14.3372 12.66 14.5639 12.86C14.8039 13.0467 15.1239 13.14 15.5239 13.14C16.0439 13.14 16.4106 12.9667 16.6239 12.62C16.8506 12.26 16.9639 11.6333 16.9639 10.74C16.9639 9.55333 16.8439 8.73333 16.6039 8.28C16.3772 7.81333 15.9706 7.58 15.3839 7.58ZM23.4114 7.18L24.8114 11.88H24.9914L26.3514 7.46L26.7114 5.64H29.3914L26.4714 14.22C26.1647 15.14 25.8047 15.8867 25.3914 16.46C24.9781 17.0333 24.4581 17.5 23.8314 17.86C23.2181 18.2333 22.4181 18.5667 21.4314 18.86L21.2114 18.84C20.6914 18.3333 20.2314 17.7067 19.8314 16.96L19.9514 16.66C20.7114 16.54 21.3647 16.3533 21.9114 16.1C22.4581 15.8467 22.9847 15.48 23.4914 15L20.0914 5.7L23.0914 5.58L23.4114 7.18ZM34.0977 5.44C35.2043 5.44 36.0643 5.68 36.6777 6.16C37.291 6.62667 37.5977 7.3 37.5977 8.18C37.5977 8.48667 37.5843 8.84 37.5577 9.24C37.531 9.64 37.511 10.02 37.4977 10.38C37.431 11.34 37.3977 12 37.3977 12.36C37.3977 12.5467 37.4243 12.68 37.4777 12.76C37.5443 12.84 37.651 12.88 37.7977 12.88C37.9177 12.88 38.0643 12.8533 38.2377 12.8L38.4577 12.98L38.1777 14.64C37.7377 14.9467 37.1977 15.1267 36.5577 15.18C36.1577 15.14 35.8177 15 35.5377 14.76C35.2577 14.52 35.0577 14.18 34.9377 13.74H34.7977C34.131 14.4467 33.451 14.9333 32.7577 15.2C31.771 15.1867 30.991 14.92 30.4177 14.4C29.8577 13.88 29.5777 13.1733 29.5777 12.28C29.5777 10.9067 30.2977 10.1 31.7377 9.86L34.6977 9.36V8.78C34.6977 8.36667 34.6043 8.07333 34.4177 7.9C34.2443 7.71333 33.9577 7.62 33.5577 7.62C33.1577 7.62 32.7243 7.70667 32.2577 7.88C31.8043 8.05333 31.2777 8.32667 30.6777 8.7L30.4777 8.56L30.1177 6.5C30.7177 6.16667 31.3643 5.90667 32.0577 5.72C32.751 5.53333 33.431 5.44 34.0977 5.44ZM32.9777 11.18C32.7777 11.22 32.6243 11.3 32.5177 11.42C32.4243 11.54 32.3777 11.72 32.3777 11.96C32.3777 12.28 32.4577 12.5267 32.6177 12.7C32.791 12.8733 33.0243 12.96 33.3177 12.96C33.7443 12.96 34.1977 12.7333 34.6777 12.28L34.6977 10.84L32.9777 11.18ZM43.0423 10.86L43.1823 15H40.0223L40.1823 11.16L40.0623 1.18L43.2023 0.96L43.0423 10.86ZM54.0627 1.92C55.2893 1.92 56.4027 2.14 57.4027 2.58L56.8227 5.24L56.6027 5.36C56.2293 5.10667 55.8027 4.91333 55.3227 4.78C54.856 4.63333 54.396 4.56 53.9427 4.56C52.9827 4.56 52.2693 4.86 51.8027 5.46C51.3493 6.06 51.1227 7.00667 51.1227 8.3C51.1227 11.1 52.116 12.5 54.1027 12.5C54.5427 12.5 55.0093 12.44 55.5027 12.32C55.996 12.2 56.4427 12.0333 56.8427 11.82L57.1227 11.98L56.8627 14.64C55.9293 15.0133 54.9227 15.2 53.8427 15.2C51.8293 15.2 50.3027 14.64 49.2627 13.52C48.2227 12.4 47.7027 10.78 47.7027 8.66C47.7027 6.51333 48.256 4.85333 49.3627 3.68C50.4693 2.50667 52.036 1.92 54.0627 1.92ZM61.8119 10.86L61.9519 15H58.7919L58.9519 11.16L58.8319 1.18L61.9719 0.96L61.8119 10.86ZM73.3616 12.98L73.0816 14.64C72.5216 15 71.9482 15.18 71.3616 15.18C70.5882 15.02 70.0549 14.4933 69.7616 13.6H69.5616C68.7882 14.3733 68.0082 14.88 67.2216 15.12C66.2216 15.12 65.4549 14.8933 64.9216 14.44C64.3882 13.9733 64.1216 13.3133 64.1216 12.46L64.1816 10.22L64.0816 5.84L67.1216 5.6L67.0816 11.3C67.0682 12.1667 67.4149 12.6 68.1216 12.6C68.3616 12.6 68.5882 12.5533 68.8016 12.46C69.0149 12.3667 69.2482 12.2133 69.5016 12V5.84L72.5016 5.6L72.3216 12.36C72.3216 12.5467 72.3482 12.68 72.4016 12.76C72.4682 12.84 72.5682 12.88 72.7016 12.88C72.8216 12.88 72.9682 12.8533 73.1416 12.8L73.3616 12.98ZM80.068 5.52C81.2413 5.52 82.148 5.92 82.788 6.72C83.428 7.52 83.748 8.63333 83.748 10.06C83.748 11.7133 83.328 12.9867 82.488 13.88C81.6613 14.7733 80.5146 15.22 79.048 15.22C78.3146 15.22 77.508 15.06 76.628 14.74L75.108 15.24L74.788 14.94L74.948 11.18L74.808 1.18L77.968 0.96L77.868 6.98H77.968C78.3146 6.63333 78.6546 6.34667 78.988 6.12C79.3213 5.88 79.6813 5.68 80.068 5.52ZM78.948 13.2C80.1746 13.2 80.788 12.3133 80.788 10.54C80.7613 8.87333 80.2213 8.04 79.168 8.04C78.7146 8.04 78.2746 8.22667 77.848 8.6L77.808 10.78L77.828 12.96C78.2546 13.12 78.628 13.2 78.948 13.2Z" fill="#FFD74B"/>
</svg>
