<svg width="24" height="24" viewBox="0 0 24 24" fill="none" xmlns="http://www.w3.org/2000/svg">
<g clip-path="url(#clip0_291_979)">
<path d="M13.3329 12.0011L16.2259 9.10807C16.3178 9.02154 16.3914 8.91745 16.4423 8.80195C16.4932 8.68645 16.5205 8.56191 16.5224 8.4357C16.5243 8.30949 16.5008 8.18418 16.4534 8.06721C16.4059 7.95023 16.3355 7.84397 16.2463 7.75471C16.157 7.66546 16.0507 7.59503 15.9338 7.54761C15.8168 7.50018 15.6915 7.47672 15.5653 7.47862C15.4391 7.48052 15.3145 7.50774 15.199 7.55866C15.0835 7.60958 14.9794 7.68317 14.8929 7.77507L12.0009 10.6671L9.10791 7.77507C8.9294 7.60699 8.69244 7.51505 8.44728 7.51873C8.20212 7.52242 7.96804 7.62145 7.79466 7.79483C7.62129 7.9682 7.52226 8.20228 7.51857 8.44744C7.51488 8.6926 7.60683 8.92956 7.77491 9.10807L10.6669 12.0011L7.77491 14.8931C7.5997 15.0707 7.50146 15.3101 7.50146 15.5596C7.50146 15.809 7.5997 16.0485 7.77491 16.2261C7.86233 16.3138 7.9662 16.3834 8.08057 16.4309C8.19495 16.4784 8.31757 16.5028 8.44141 16.5028C8.56525 16.5028 8.68787 16.4784 8.80224 16.4309C8.91661 16.3834 9.02049 16.3138 9.10791 16.2261L12.0009 13.3331L14.8929 16.2261C14.9803 16.3138 15.0842 16.3834 15.1986 16.4309C15.3129 16.4784 15.4356 16.5028 15.5594 16.5028C15.6832 16.5028 15.8059 16.4784 15.9202 16.4309C16.0346 16.3834 16.1385 16.3138 16.2259 16.2261C16.4011 16.0485 16.4993 15.809 16.4993 15.5596C16.4993 15.3101 16.4011 15.0707 16.2259 14.8931L13.3329 12.0011Z" fill="#333333"/>
</g>
<defs>
<clipPath id="clip0_291_979">
<rect width="24" height="24" fill="white"/>
</clipPath>
</defs>
</svg>
