<svg width="24" height="24" viewBox="0 0 24 24" fill="none" xmlns="http://www.w3.org/2000/svg">
<g clip-path="url(#clip0_520_352)">
<path d="M13.3329 12.001L16.2259 9.10801C16.3178 9.02148 16.3914 8.91738 16.4423 8.80189C16.4932 8.68639 16.5205 8.56185 16.5224 8.43564C16.5243 8.30943 16.5008 8.18412 16.4534 8.06715C16.4059 7.95017 16.3355 7.84391 16.2463 7.75465C16.157 7.6654 16.0507 7.59497 15.9338 7.54755C15.8168 7.50012 15.6915 7.47666 15.5653 7.47856C15.4391 7.48046 15.3145 7.50768 15.199 7.5586C15.0835 7.60952 14.9794 7.68311 14.8929 7.77501L12.0009 10.667L9.10791 7.77501C8.9294 7.60693 8.69244 7.51499 8.44728 7.51867C8.20212 7.52236 7.96804 7.62139 7.79466 7.79477C7.62129 7.96814 7.52226 8.20222 7.51857 8.44738C7.51488 8.69254 7.60683 8.9295 7.77491 9.10801L10.6669 12.001L7.77491 14.893C7.5997 15.0706 7.50146 15.31 7.50146 15.5595C7.50146 15.809 7.5997 16.0484 7.77491 16.226C7.86233 16.3137 7.9662 16.3833 8.08057 16.4308C8.19495 16.4783 8.31757 16.5027 8.44141 16.5027C8.56525 16.5027 8.68787 16.4783 8.80224 16.4308C8.91661 16.3833 9.02049 16.3137 9.10791 16.226L12.0009 13.333L14.8929 16.226C14.9803 16.3137 15.0842 16.3833 15.1986 16.4308C15.3129 16.4783 15.4356 16.5027 15.5594 16.5027C15.6832 16.5027 15.8059 16.4783 15.9202 16.4308C16.0346 16.3833 16.1385 16.3137 16.2259 16.226C16.4011 16.0484 16.4993 15.809 16.4993 15.5595C16.4993 15.31 16.4011 15.0706 16.2259 14.893L13.3329 12.001Z" fill="#97A1C2"/>
</g>
<defs>
<clipPath id="clip0_520_352">
<rect width="24" height="24" fill="white"/>
</clipPath>
</defs>
</svg>
