<svg width="24" height="24" viewBox="0 0 24 24" fill="none" xmlns="http://www.w3.org/2000/svg">
<path fill-rule="evenodd" clip-rule="evenodd" d="M12 22C6.477 22 2 17.523 2 12C2 6.477 6.477 2 12 2C17.523 2 22 6.477 22 12C22 17.523 17.523 22 12 22ZM9 9.782H10.606C10.661 8.935 11.229 8.395 12.11 8.395C12.972 8.395 13.546 8.921 13.546 9.645C13.546 10.322 13.259 10.691 12.411 11.205C11.468 11.758 11.071 12.373 11.133 13.385L11.14 13.87H12.726V13.474C12.726 12.79 12.979 12.434 13.874 11.915C14.804 11.361 15.324 10.63 15.324 9.584C15.323 8.08 14.071 7 12.198 7C10.17 7 9.055 8.176 9 9.782ZM11.953 17.083C12.507 17.083 12.944 16.653 12.944 16.113C12.944 15.573 12.507 15.148 11.954 15.148C11.399 15.148 10.955 15.572 10.955 16.112C10.955 16.652 11.399 17.083 11.953 17.083Z" fill="white"/>
</svg>
