<svg width="50" height="50" viewBox="0 0 50 50" fill="none" xmlns="http://www.w3.org/2000/svg">
<path d="M5.55556 6.94446C4.08213 6.94446 2.66905 7.52977 1.62718 8.57164C0.585316 9.61351 0 11.0266 0 12.5L0 37.5C0 38.9734 0.585316 40.3865 1.62718 41.4284C2.66905 42.4703 4.08213 43.0556 5.55556 43.0556H16.6667V6.94446H5.55556Z" fill="#009A49"/>
<path d="M16.6666 6.94446H33.3333V43.0556H16.6666V6.94446Z" fill="#EEEEEE"/>
<path d="M44.4445 6.94446H33.3334V43.0556H44.4445C45.9179 43.0556 47.331 42.4703 48.3729 41.4284C49.4147 40.3865 50 38.9734 50 37.5V12.5C50 11.0266 49.4147 9.61351 48.3729 8.57164C47.331 7.52977 45.9179 6.94446 44.4445 6.94446Z" fill="#009A49"/>
</svg>
