<svg width="72" height="36" viewBox="0 0 72 36" fill="none" xmlns="http://www.w3.org/2000/svg">
<rect width="72" height="36" rx="5" fill="#97AEE1" fill-opacity="0.109804"/>
<g clip-path="url(#clip0_503_312)">
<mask id="mask0_503_312" style="mask-type:luminance" maskUnits="userSpaceOnUse" x="40" y="4" width="28" height="28">
<path d="M54 32C61.732 32 68 25.732 68 18C68 10.268 61.732 4 54 4C46.268 4 40 10.268 40 18C40 25.732 46.268 32 54 32Z" fill="white"/>
</mask>
<g mask="url(#mask0_503_312)">
<path d="M49.1327 4H58.8671L60.5624 17.8469L58.8671 32H49.1327L47.3062 17.9234L49.1327 4Z" fill="#EEEEEE"/>
<path d="M40 4H49.1328V32H40V4Z" fill="#FF9811"/>
<path d="M58.8672 4H68V32H58.8672V4Z" fill="#6DA544"/>
</g>
</g>
<g clip-path="url(#clip1_503_312)">
<mask id="mask1_503_312" style="mask-type:luminance" maskUnits="userSpaceOnUse" x="40" y="4" width="28" height="28">
<path d="M54 32C61.732 32 68 25.732 68 18C68 10.268 61.732 4 54 4C46.268 4 40 10.268 40 18C40 25.732 46.268 32 54 32Z" fill="white"/>
</mask>
<g mask="url(#mask1_503_312)">
<path d="M40 4L40.4375 5.20312L40 6.46094V7.71875L41.75 10.6719L40 13.625V15.375L41.75 18L40 20.625V22.375L41.75 25.3281L40 28.2812V32L41.2031 31.5625L42.4609 32H43.7188L46.6719 30.25L49.625 32H51.375L54 30.25L56.625 32H58.375L61.3281 30.25L64.2812 32H68L67.5625 30.7969L68 29.5391V28.2812L66.25 25.3281L68 22.375V20.625L66.25 18L68 15.375V13.625L66.25 10.6719L68 7.71875V4L66.7969 4.4375L65.5391 4H64.2812L61.3281 5.75L58.375 4H56.625L54 5.75L51.375 4H49.625L46.6719 5.75L43.7188 4H40Z" fill="#EEEEEE"/>
<path d="M58.375 4V9.90625L64.2812 4H58.375ZM68 7.71875L62.0938 13.625H68V7.71875ZM40 13.625H45.9062L40 7.71875V13.625ZM43.7188 4L49.625 9.90625V4H43.7188ZM49.625 32V26.0938L43.7188 32H49.625ZM40 28.2812L45.9062 22.375H40V28.2812ZM68 22.375H62.0938L68 28.2812V22.375ZM64.2812 32L58.375 26.0938V32H64.2812Z" fill="#0052B4"/>
<path d="M40 4V6.46094L47.1641 13.625H49.625L40 4ZM51.375 4V15.375H40V20.625H51.375V32H56.625V20.625H68V15.375H56.625V4H51.375ZM65.5391 4L58.375 11.1641V13.625L68 4H65.5391ZM49.625 22.375L40 32H42.4609L49.625 24.8359V22.375ZM58.375 22.375L68 32V29.5391L60.8359 22.375H58.375Z" fill="#D80027"/>
</g>
</g>
<path d="M12.076 23V12.0909H19.1712V13.7475H14.0522V16.7092H18.8036V18.3658H14.0522V21.3434H19.2138V23H12.076ZM30.1522 12.0909V23H28.3944L23.2541 15.5692H23.1635V23H21.1873V12.0909H22.9558L28.0907 19.527H28.1866V12.0909H30.1522Z" fill="white"/>
<defs>
<clipPath id="clip0_503_312">
<rect width="28" height="28" fill="white" transform="translate(40 4)"/>
</clipPath>
<clipPath id="clip1_503_312">
<rect width="28" height="28" fill="white" transform="translate(40 4)"/>
</clipPath>
</defs>
</svg>
