<svg width="18" height="18" viewBox="0 0 18 18" fill="none" xmlns="http://www.w3.org/2000/svg">
<path d="M16.5 6.735V13.5C16.5 14.325 15.825 15 15 15H3C2.175 15 1.5 14.325 1.5 13.5V4.5C1.5 3.675 2.175 3 3 3H10.575C10.53 3.24 10.5 3.495 10.5 3.75C10.5 4.86 10.9875 5.8425 11.7525 6.5325L9 8.25L3 4.5V6L9 9.75L12.975 7.26C13.38 7.41 13.8 7.5 14.25 7.5C15.0975 7.5 15.87 7.2075 16.5 6.735ZM12 3.75C12 4.995 13.005 6 14.25 6C15.495 6 16.5 4.995 16.5 3.75C16.5 2.505 15.495 1.5 14.25 1.5C13.005 1.5 12 2.505 12 3.75Z" fill="white"/>
</svg>
