<svg width="168" height="168" viewBox="0 0 168 168" fill="none" xmlns="http://www.w3.org/2000/svg">
<g clip-path="url(#clip0_1665_2)">
<path d="M84 0C61.7269 0 40.3462 8.85544 24.6094 24.6028C8.85638 40.3565 0.00450776 61.7214 0 84C0 106.269 8.85938 127.65 24.6094 143.397C40.3462 159.145 61.7269 168 84 168C106.273 168 127.654 159.145 143.391 143.397C159.141 127.65 168 106.269 168 84C168 61.7308 159.141 40.3502 143.391 24.6028C127.654 8.85544 106.273 0 84 0Z" fill="url(#paint0_linear_1665_2)"/>
<path d="M38.0229 83.1127C62.5142 72.4447 78.8417 65.4115 87.0054 62.013C110.342 52.3097 115.185 50.6244 118.348 50.5673C119.044 50.5562 120.592 50.7281 121.603 51.5451C122.443 52.2342 122.679 53.1661 122.797 53.8204C122.902 54.474 123.047 55.9637 122.929 57.1266C121.669 70.4091 116.195 102.641 113.413 117.519C112.245 123.813 109.922 125.924 107.677 126.13C102.795 126.579 99.0935 122.906 94.3685 119.81C86.9792 114.963 82.8054 111.947 75.626 107.218C67.331 101.753 72.7123 98.7485 77.4373 93.8398C78.671 92.5549 100.17 73.0052 100.577 71.232C100.629 71.0102 100.682 70.1833 100.183 69.7475C99.6973 69.3105 98.9754 69.4601 98.4504 69.5782C97.7023 69.7462 85.9029 77.553 63.0129 92.9972C59.666 95.2993 56.6342 96.4215 53.9042 96.3624C50.9117 96.2981 45.1367 94.6667 40.8448 93.2728C35.5948 91.5626 31.4079 90.6583 31.7754 87.7537C31.9592 86.2417 34.046 84.6943 38.0229 83.1127Z" fill="white"/>
<g filter="url(#filter0_d_1665_2)">
<mask id="path-3-outside-1_1665_2" maskUnits="userSpaceOnUse" x="9" y="122" width="151" height="41" fill="black">
<rect fill="white" x="9" y="122" width="151" height="41"/>
<path d="M28.6992 157.391C25.9779 157.391 23.582 156.792 21.5117 155.594C19.4544 154.383 17.8464 152.664 16.6875 150.438C15.5417 148.198 14.9688 145.548 14.9688 142.488C14.9688 139.337 15.5677 136.648 16.7656 134.422C17.9635 132.182 19.5911 130.47 21.6484 129.285C23.7057 128.1 26.0169 127.508 28.582 127.508C30.7826 127.508 32.7682 127.924 34.5391 128.758C36.3229 129.591 37.7812 130.743 38.9141 132.215C40.0599 133.686 40.763 135.385 41.0234 137.312H34.793C34.3893 135.945 33.6667 134.878 32.625 134.109C31.5833 133.328 30.2682 132.938 28.6797 132.938C26.4531 132.938 24.6497 133.764 23.2695 135.418C21.8893 137.059 21.1992 139.396 21.1992 142.43C21.1992 145.464 21.8763 147.814 23.2305 149.48C24.5977 151.134 26.4401 151.961 28.7578 151.961C30.7891 151.961 32.3841 151.434 33.543 150.379C34.7148 149.311 35.3203 147.872 35.3594 146.062H29.1289V141.434H41.3164V145.105C41.3164 147.658 40.776 149.852 39.6953 151.688C38.6146 153.523 37.1237 154.936 35.2227 155.926C33.3216 156.902 31.1471 157.391 28.6992 157.391ZM45.9258 157V127.898H57.3711C60.6784 127.898 63.2435 128.764 65.0664 130.496C66.9023 132.228 67.8203 134.533 67.8203 137.41C67.8203 139.402 67.3776 141.108 66.4922 142.527C65.6068 143.934 64.3372 144.988 62.6836 145.691L68.8555 157H62.0586L56.5508 146.688H52.0586V157H45.9258ZM52.0586 141.746H56.2188C59.7344 141.746 61.4922 140.301 61.4922 137.41C61.4922 135.965 61.056 134.858 60.1836 134.09C59.3112 133.322 57.9831 132.938 56.1992 132.938H52.0586V141.746ZM85.3203 157.391C82.7422 157.391 80.4245 156.805 78.3672 155.633C76.3099 154.461 74.6823 152.762 73.4844 150.535C72.2865 148.309 71.6875 145.62 71.6875 142.469C71.6875 139.292 72.2865 136.59 73.4844 134.363C74.6823 132.137 76.3099 130.438 78.3672 129.266C80.4245 128.094 82.7422 127.508 85.3203 127.508C87.8984 127.508 90.2096 128.094 92.2539 129.266C94.3112 130.438 95.9388 132.137 97.1367 134.363C98.3346 136.59 98.9336 139.292 98.9336 142.469C98.9336 145.646 98.3346 148.348 97.1367 150.574C95.9388 152.788 94.3112 154.48 92.2539 155.652C90.2096 156.811 87.8984 157.391 85.3203 157.391ZM77.918 142.469C77.918 145.542 78.5885 147.892 79.9297 149.52C81.2839 151.147 83.0807 151.961 85.3203 151.961C87.5469 151.961 89.3307 151.147 90.6719 149.52C92.026 147.892 92.7031 145.542 92.7031 142.469C92.7031 139.383 92.026 137.026 90.6719 135.398C89.3307 133.758 87.5469 132.938 85.3203 132.938C83.0807 132.938 81.2839 133.758 79.9297 135.398C78.5885 137.026 77.918 139.383 77.918 142.469ZM121.473 127.898H127.605V146.766C127.605 148.888 127.104 150.75 126.102 152.352C125.099 153.94 123.693 155.177 121.883 156.062C120.073 156.948 117.964 157.391 115.555 157.391C113.133 157.391 111.017 156.948 109.207 156.062C107.41 155.177 106.01 153.94 105.008 152.352C104.005 150.75 103.504 148.888 103.504 146.766V127.898H109.637V146.258C109.637 147.924 110.177 149.298 111.258 150.379C112.339 151.447 113.771 151.98 115.555 151.98C117.339 151.98 118.771 151.447 119.852 150.379C120.932 149.298 121.473 147.924 121.473 146.258V127.898ZM132.684 157V127.898H144.129C146.342 127.898 148.224 128.322 149.773 129.168C151.336 130.014 152.527 131.18 153.348 132.664C154.168 134.148 154.578 135.854 154.578 137.781C154.578 139.708 154.161 141.408 153.328 142.879C152.495 144.35 151.29 145.503 149.715 146.336C148.139 147.156 146.232 147.566 143.992 147.566H138.816V157H132.684ZM138.816 142.645H142.977C144.76 142.645 146.082 142.195 146.941 141.297C147.814 140.385 148.25 139.214 148.25 137.781C148.25 136.323 147.814 135.151 146.941 134.266C146.069 133.38 144.741 132.938 142.957 132.938H138.816V142.645Z"/>
</mask>
<path d="M28.6992 157.391C25.9779 157.391 23.582 156.792 21.5117 155.594C19.4544 154.383 17.8464 152.664 16.6875 150.438C15.5417 148.198 14.9688 145.548 14.9688 142.488C14.9688 139.337 15.5677 136.648 16.7656 134.422C17.9635 132.182 19.5911 130.47 21.6484 129.285C23.7057 128.1 26.0169 127.508 28.582 127.508C30.7826 127.508 32.7682 127.924 34.5391 128.758C36.3229 129.591 37.7812 130.743 38.9141 132.215C40.0599 133.686 40.763 135.385 41.0234 137.312H34.793C34.3893 135.945 33.6667 134.878 32.625 134.109C31.5833 133.328 30.2682 132.938 28.6797 132.938C26.4531 132.938 24.6497 133.764 23.2695 135.418C21.8893 137.059 21.1992 139.396 21.1992 142.43C21.1992 145.464 21.8763 147.814 23.2305 149.48C24.5977 151.134 26.4401 151.961 28.7578 151.961C30.7891 151.961 32.3841 151.434 33.543 150.379C34.7148 149.311 35.3203 147.872 35.3594 146.062H29.1289V141.434H41.3164V145.105C41.3164 147.658 40.776 149.852 39.6953 151.688C38.6146 153.523 37.1237 154.936 35.2227 155.926C33.3216 156.902 31.1471 157.391 28.6992 157.391ZM45.9258 157V127.898H57.3711C60.6784 127.898 63.2435 128.764 65.0664 130.496C66.9023 132.228 67.8203 134.533 67.8203 137.41C67.8203 139.402 67.3776 141.108 66.4922 142.527C65.6068 143.934 64.3372 144.988 62.6836 145.691L68.8555 157H62.0586L56.5508 146.688H52.0586V157H45.9258ZM52.0586 141.746H56.2188C59.7344 141.746 61.4922 140.301 61.4922 137.41C61.4922 135.965 61.056 134.858 60.1836 134.09C59.3112 133.322 57.9831 132.938 56.1992 132.938H52.0586V141.746ZM85.3203 157.391C82.7422 157.391 80.4245 156.805 78.3672 155.633C76.3099 154.461 74.6823 152.762 73.4844 150.535C72.2865 148.309 71.6875 145.62 71.6875 142.469C71.6875 139.292 72.2865 136.59 73.4844 134.363C74.6823 132.137 76.3099 130.438 78.3672 129.266C80.4245 128.094 82.7422 127.508 85.3203 127.508C87.8984 127.508 90.2096 128.094 92.2539 129.266C94.3112 130.438 95.9388 132.137 97.1367 134.363C98.3346 136.59 98.9336 139.292 98.9336 142.469C98.9336 145.646 98.3346 148.348 97.1367 150.574C95.9388 152.788 94.3112 154.48 92.2539 155.652C90.2096 156.811 87.8984 157.391 85.3203 157.391ZM77.918 142.469C77.918 145.542 78.5885 147.892 79.9297 149.52C81.2839 151.147 83.0807 151.961 85.3203 151.961C87.5469 151.961 89.3307 151.147 90.6719 149.52C92.026 147.892 92.7031 145.542 92.7031 142.469C92.7031 139.383 92.026 137.026 90.6719 135.398C89.3307 133.758 87.5469 132.938 85.3203 132.938C83.0807 132.938 81.2839 133.758 79.9297 135.398C78.5885 137.026 77.918 139.383 77.918 142.469ZM121.473 127.898H127.605V146.766C127.605 148.888 127.104 150.75 126.102 152.352C125.099 153.94 123.693 155.177 121.883 156.062C120.073 156.948 117.964 157.391 115.555 157.391C113.133 157.391 111.017 156.948 109.207 156.062C107.41 155.177 106.01 153.94 105.008 152.352C104.005 150.75 103.504 148.888 103.504 146.766V127.898H109.637V146.258C109.637 147.924 110.177 149.298 111.258 150.379C112.339 151.447 113.771 151.98 115.555 151.98C117.339 151.98 118.771 151.447 119.852 150.379C120.932 149.298 121.473 147.924 121.473 146.258V127.898ZM132.684 157V127.898H144.129C146.342 127.898 148.224 128.322 149.773 129.168C151.336 130.014 152.527 131.18 153.348 132.664C154.168 134.148 154.578 135.854 154.578 137.781C154.578 139.708 154.161 141.408 153.328 142.879C152.495 144.35 151.29 145.503 149.715 146.336C148.139 147.156 146.232 147.566 143.992 147.566H138.816V157H132.684ZM138.816 142.645H142.977C144.76 142.645 146.082 142.195 146.941 141.297C147.814 140.385 148.25 139.214 148.25 137.781C148.25 136.323 147.814 135.151 146.941 134.266C146.069 133.38 144.741 132.938 142.957 132.938H138.816V142.645Z" fill="white"/>
<path d="M21.5117 155.594L18.9754 159.903L18.9915 159.912L19.0076 159.922L21.5117 155.594ZM16.6875 150.438L12.2363 152.715L12.2442 152.73L12.2523 152.746L16.6875 150.438ZM16.7656 134.422L21.1688 136.791L21.1745 136.78L16.7656 134.422ZM34.5391 128.758L32.4101 133.282L32.4228 133.288L34.5391 128.758ZM38.9141 132.215L34.9522 135.265L34.9607 135.276L34.9692 135.287L38.9141 132.215ZM41.0234 137.312V142.312H46.7446L45.9784 136.643L41.0234 137.312ZM34.793 137.312L29.9976 138.728L31.0558 142.312H34.793V137.312ZM32.625 134.109L29.625 138.109L29.6411 138.121L29.6573 138.133L32.625 134.109ZM23.2695 135.418L27.0957 138.637L27.1019 138.629L27.1082 138.622L23.2695 135.418ZM23.2305 149.48L19.3499 152.633L19.3634 152.65L19.377 152.666L23.2305 149.48ZM33.543 150.379L36.9084 154.077L36.9104 154.075L33.543 150.379ZM35.3594 146.062L40.3582 146.17L40.4685 141.062H35.3594V146.062ZM29.1289 146.062H24.1289V151.062H29.1289V146.062ZM29.1289 141.434V136.434H24.1289V141.434H29.1289ZM41.3164 141.434H46.3164V136.434H41.3164V141.434ZM35.2227 155.926L37.5073 160.373L37.5193 160.367L37.5313 160.361L35.2227 155.926ZM28.6992 152.391C26.7339 152.391 25.2251 151.966 24.0158 151.266L19.0076 159.922C21.939 161.618 25.2218 162.391 28.6992 162.391V152.391ZM24.048 151.285C22.8412 150.574 21.872 149.569 21.1227 148.129L12.2523 152.746C13.8207 155.759 16.0676 158.191 18.9754 159.903L24.048 151.285ZM21.1387 148.16C20.4234 146.762 19.9688 144.925 19.9688 142.488H9.96875C9.96875 146.171 10.6599 149.634 12.2363 152.715L21.1387 148.16ZM19.9688 142.488C19.9688 139.964 20.4477 138.131 21.1688 136.791L12.3624 132.053C10.6878 135.166 9.96875 138.711 9.96875 142.488H19.9688ZM21.1745 136.78C21.9638 135.305 22.9534 134.304 24.1439 133.618L19.153 124.952C16.2289 126.637 13.9633 129.06 12.3567 132.064L21.1745 136.78ZM24.1439 133.618C25.3815 132.905 26.8201 132.508 28.582 132.508V122.508C25.2138 122.508 22.0299 123.295 19.153 124.952L24.1439 133.618ZM28.582 132.508C30.1385 132.508 31.3837 132.799 32.4101 133.282L36.668 124.234C34.1527 123.05 31.4266 122.508 28.582 122.508V132.508ZM32.4228 133.288C33.5269 133.804 34.3368 134.466 34.9522 135.265L42.8759 129.165C41.2257 127.021 39.1189 125.379 36.6553 124.228L32.4228 133.288ZM34.9692 135.287C35.5481 136.03 35.9212 136.892 36.0685 137.982L45.9784 136.643C45.6049 133.879 44.5717 131.342 42.8589 129.143L34.9692 135.287ZM41.0234 132.312H34.793V142.312H41.0234V132.312ZM39.5883 135.897C38.9091 133.596 37.6011 131.567 35.5927 130.085L29.6573 138.133C29.7322 138.189 29.8695 138.295 29.9976 138.728L39.5883 135.897ZM35.625 130.109C33.5414 128.547 31.1066 127.938 28.6797 127.938V137.938C29.0662 137.938 29.3045 137.985 29.4337 138.024C29.5538 138.059 29.6035 138.093 29.625 138.109L35.625 130.109ZM28.6797 127.938C25.0281 127.938 21.7974 129.379 19.4309 132.214L27.1082 138.622C27.5021 138.15 27.8781 137.938 28.6797 137.938V127.938ZM19.4434 132.199C17.0438 135.052 16.1992 138.7 16.1992 142.43H26.1992C26.1992 140.092 26.7348 139.066 27.0957 138.637L19.4434 132.199ZM16.1992 142.43C16.1992 146.146 17.0242 149.771 19.3499 152.633L27.111 146.328C26.7284 145.857 26.1992 144.781 26.1992 142.43H16.1992ZM19.377 152.666C21.7776 155.57 25.0857 156.961 28.7578 156.961V146.961C27.7945 146.961 27.4178 146.698 27.084 146.294L19.377 152.666ZM28.7578 156.961C31.6544 156.961 34.5823 156.194 36.9084 154.077L30.1775 146.681C30.1532 146.703 30.0887 146.758 29.908 146.818C29.7099 146.884 29.3479 146.961 28.7578 146.961V156.961ZM36.9104 154.075C39.2417 151.951 40.2942 149.136 40.3582 146.17L30.3605 145.955C30.3525 146.329 30.2901 146.506 30.2674 146.56C30.2505 146.6 30.2338 146.63 30.1755 146.683L36.9104 154.075ZM35.3594 141.062H29.1289V151.062H35.3594V141.062ZM34.1289 146.062V141.434H24.1289V146.062H34.1289ZM29.1289 146.434H41.3164V136.434H29.1289V146.434ZM36.3164 141.434V145.105H46.3164V141.434H36.3164ZM36.3164 145.105C36.3164 146.943 35.9325 148.223 35.3864 149.151L44.0042 154.224C45.6195 151.48 46.3164 148.372 46.3164 145.105H36.3164ZM35.3864 149.151C34.7843 150.174 33.9888 150.931 32.914 151.491L37.5313 160.361C40.2586 158.941 42.4449 156.873 44.0042 154.224L35.3864 149.151ZM32.938 151.478C31.8404 152.042 30.4687 152.391 28.6992 152.391V162.391C31.8256 162.391 34.8029 161.763 37.5073 160.373L32.938 151.478ZM45.9258 157H40.9258V162H45.9258V157ZM45.9258 127.898V122.898H40.9258V127.898H45.9258ZM65.0664 130.496L61.6227 134.121L61.6291 134.127L61.6356 134.133L65.0664 130.496ZM66.4922 142.527L70.7234 145.191L70.7289 145.183L70.7344 145.174L66.4922 142.527ZM62.6836 145.691L60.7271 141.09L55.6535 143.247L58.2947 148.087L62.6836 145.691ZM68.8555 157V162H77.2805L73.2444 154.605L68.8555 157ZM62.0586 157L57.6482 159.356L59.0606 162H62.0586V157ZM56.5508 146.688L60.9612 144.332L59.5488 141.688H56.5508V146.688ZM52.0586 146.688V141.688H47.0586V146.688H52.0586ZM52.0586 157V162H57.0586V157H52.0586ZM52.0586 141.746H47.0586V146.746H52.0586V141.746ZM52.0586 132.938V127.938H47.0586V132.938H52.0586ZM50.9258 157V127.898H40.9258V157H50.9258ZM45.9258 132.898H57.3711V122.898H45.9258V132.898ZM57.3711 132.898C59.813 132.898 60.9924 133.522 61.6227 134.121L68.5102 126.871C65.4946 124.006 61.5438 122.898 57.3711 122.898V132.898ZM61.6356 134.133C62.3257 134.784 62.8203 135.697 62.8203 137.41H72.8203C72.8203 133.368 71.479 129.671 68.4973 126.859L61.6356 134.133ZM62.8203 137.41C62.8203 138.647 62.5526 139.396 62.25 139.881L70.7344 145.174C72.2026 142.82 72.8203 140.158 72.8203 137.41H62.8203ZM62.261 139.863C61.9633 140.336 61.523 140.752 60.7271 141.09L64.6401 150.293C67.1515 149.225 69.2502 147.531 70.7234 145.191L62.261 139.863ZM58.2947 148.087L64.4666 159.395L73.2444 154.605L67.0725 143.296L58.2947 148.087ZM68.8555 152H62.0586V162H68.8555V152ZM66.469 154.644L60.9612 144.332L52.1404 149.043L57.6482 159.356L66.469 154.644ZM56.5508 141.688H52.0586V151.688H56.5508V141.688ZM47.0586 146.688V157H57.0586V146.688H47.0586ZM52.0586 152H45.9258V162H52.0586V152ZM52.0586 146.746H56.2188V136.746H52.0586V146.746ZM56.2188 146.746C58.5353 146.746 61.202 146.29 63.3494 144.524C65.6841 142.605 66.4922 139.912 66.4922 137.41H56.4922C56.4922 137.636 56.457 137.606 56.5289 137.429C56.5657 137.338 56.6244 137.225 56.7117 137.105C56.7994 136.985 56.8986 136.882 56.9983 136.8C57.2005 136.634 57.319 136.621 57.2042 136.653C57.078 136.688 56.7714 136.746 56.2188 136.746V146.746ZM66.4922 137.41C66.4922 134.906 65.6925 132.279 63.488 130.337L56.8792 137.842C56.8025 137.775 56.7249 137.69 56.6559 137.591C56.5873 137.493 56.5415 137.401 56.5133 137.329C56.4576 137.188 56.4922 137.184 56.4922 137.41H66.4922ZM63.488 130.337C61.3228 128.431 58.5744 127.938 56.1992 127.938V137.938C56.7497 137.938 57.0403 137.999 57.1441 138.029C57.2326 138.054 57.0911 138.029 56.8792 137.842L63.488 130.337ZM56.1992 127.938H52.0586V137.938H56.1992V127.938ZM47.0586 132.938V141.746H57.0586V132.938H47.0586ZM78.3672 155.633L75.8924 159.977L78.3672 155.633ZM78.3672 129.266L75.8924 124.921L78.3672 129.266ZM92.2539 129.266L89.7673 133.603L89.7791 133.61L92.2539 129.266ZM97.1367 150.574L101.534 152.954L101.54 152.943L97.1367 150.574ZM92.2539 155.652L94.7197 160.002L94.7287 159.997L92.2539 155.652ZM79.9297 149.52L76.0709 152.699L76.0785 152.708L76.0861 152.717L79.9297 149.52ZM90.6719 149.52L86.8282 146.322L86.8207 146.331L86.8131 146.34L90.6719 149.52ZM90.6719 135.398L86.8007 138.563L86.8144 138.58L86.8282 138.596L90.6719 135.398ZM79.9297 135.398L76.0736 132.216L76.0709 132.219L79.9297 135.398ZM85.3203 152.391C83.5306 152.391 82.0791 151.993 80.842 151.288L75.8924 159.977C78.7699 161.616 81.9537 162.391 85.3203 162.391V152.391ZM80.842 151.288C79.656 150.613 78.6723 149.625 77.8876 148.166L69.0812 152.904C70.6923 155.899 72.9638 158.309 75.8924 159.977L80.842 151.288ZM77.8876 148.166C77.1664 146.826 76.6875 144.993 76.6875 142.469H66.6875C66.6875 146.246 67.4065 149.791 69.0812 152.904L77.8876 148.166ZM76.6875 142.469C76.6875 139.91 77.1694 138.067 77.8876 136.732L69.0812 131.994C67.4036 135.113 66.6875 138.673 66.6875 142.469H76.6875ZM77.8876 136.732C78.6723 135.274 79.656 134.286 80.842 133.61L75.8924 124.921C72.9638 126.589 70.6923 129 69.0812 131.994L77.8876 136.732ZM80.842 133.61C82.0791 132.906 83.5306 132.508 85.3203 132.508V122.508C81.9537 122.508 78.7699 123.282 75.8924 124.921L80.842 133.61ZM85.3203 132.508C87.1104 132.508 88.5499 132.906 89.7673 133.603L94.7405 124.928C91.8693 123.282 88.6865 122.508 85.3203 122.508V132.508ZM89.7791 133.61C90.9651 134.286 91.9488 135.274 92.7335 136.732L101.54 131.994C99.9288 129 97.6573 126.589 94.7287 124.921L89.7791 133.61ZM92.7335 136.732C93.4517 138.067 93.9336 139.91 93.9336 142.469H103.934C103.934 138.673 103.218 135.113 101.54 131.994L92.7335 136.732ZM93.9336 142.469C93.9336 145.027 93.4517 146.87 92.7335 148.205L101.54 152.943C103.218 149.825 103.934 146.265 103.934 142.469H93.9336ZM92.7394 148.194C91.9569 149.64 90.9727 150.628 89.7791 151.308L94.7287 159.997C97.6497 158.333 99.9207 155.935 101.534 152.954L92.7394 148.194ZM89.7881 151.303C88.5673 151.995 87.1203 152.391 85.3203 152.391V162.391C88.6766 162.391 91.8519 161.628 94.7197 160.002L89.7881 151.303ZM72.918 142.469C72.918 146.186 73.7198 149.846 76.0709 152.699L83.7884 146.34C83.4573 145.938 82.918 144.897 82.918 142.469H72.918ZM76.0861 152.717C78.4513 155.56 81.6937 156.961 85.3203 156.961V146.961C84.4677 146.961 84.1164 146.734 83.7733 146.322L76.0861 152.717ZM85.3203 156.961C88.9449 156.961 92.1805 155.551 94.5306 152.699L86.8131 146.34C86.4809 146.743 86.1489 146.961 85.3203 146.961V156.961ZM94.5155 152.717C96.8904 149.863 97.7031 146.196 97.7031 142.469H87.7031C87.7031 144.888 87.1617 145.921 86.8282 146.322L94.5155 152.717ZM97.7031 142.469C97.7031 138.735 96.8931 135.058 94.5155 132.201L86.8282 138.596C87.159 138.994 87.7031 140.031 87.7031 142.469H97.7031ZM94.543 132.234C92.1982 129.365 88.9597 127.938 85.3203 127.938V137.938C86.1341 137.938 86.4633 138.15 86.8007 138.563L94.543 132.234ZM85.3203 127.938C81.679 127.938 78.4337 129.356 76.0736 132.216L83.7858 138.581C84.134 138.159 84.4824 137.938 85.3203 137.938V127.938ZM76.0709 132.219C73.7171 135.075 72.918 138.744 72.918 142.469H82.918C82.918 140.021 83.4599 138.977 83.7884 138.578L76.0709 132.219ZM121.473 127.898V122.898H116.473V127.898H121.473ZM127.605 127.898H132.605V122.898H127.605V127.898ZM126.102 152.352L130.33 155.02L130.335 155.012L130.34 155.005L126.102 152.352ZM121.883 156.062L119.686 151.571L121.883 156.062ZM109.207 156.062L106.997 160.548L107.003 160.551L107.01 160.554L109.207 156.062ZM105.008 152.352L100.77 155.005L100.775 155.012L100.78 155.02L105.008 152.352ZM103.504 127.898V122.898H98.5039V127.898H103.504ZM109.637 127.898H114.637V122.898H109.637V127.898ZM111.258 150.379L107.722 153.914L107.733 153.925L107.744 153.936L111.258 150.379ZM119.852 150.379L123.366 153.936L123.376 153.925L123.387 153.914L119.852 150.379ZM121.473 132.898H127.605V122.898H121.473V132.898ZM122.605 127.898V146.766H132.605V127.898H122.605ZM122.605 146.766C122.605 148.069 122.309 148.987 121.864 149.698L130.34 155.005C131.9 152.513 132.605 149.707 132.605 146.766H122.605ZM121.873 149.683C121.402 150.43 120.726 151.062 119.686 151.571L124.08 160.554C126.66 159.292 128.796 157.45 130.33 155.02L121.873 149.683ZM119.686 151.571C118.681 152.063 117.349 152.391 115.555 152.391V162.391C118.578 162.391 121.465 161.833 124.08 160.554L119.686 151.571ZM115.555 152.391C113.742 152.391 112.406 152.061 111.404 151.571L107.01 160.554C109.628 161.835 112.523 162.391 115.555 162.391V152.391ZM111.417 151.577C110.39 151.072 109.713 150.439 109.236 149.683L100.78 155.02C102.307 157.441 104.43 159.283 106.997 160.548L111.417 151.577ZM109.246 149.698C108.801 148.987 108.504 148.069 108.504 146.766H98.5039C98.5039 149.707 99.2097 152.513 100.77 155.005L109.246 149.698ZM108.504 146.766V127.898H98.5039V146.766H108.504ZM103.504 132.898H109.637V122.898H103.504V132.898ZM104.637 127.898V146.258H114.637V127.898H104.637ZM104.637 146.258C104.637 149.118 105.614 151.807 107.722 153.914L114.793 146.843C114.721 146.771 114.705 146.733 114.695 146.708C114.682 146.674 114.637 146.545 114.637 146.258H104.637ZM107.744 153.936C109.922 156.088 112.702 156.98 115.555 156.98V146.98C115.161 146.98 114.962 146.922 114.889 146.895C114.831 146.873 114.806 146.856 114.772 146.822L107.744 153.936ZM115.555 156.98C118.408 156.98 121.187 156.088 123.366 153.936L116.338 146.822C116.303 146.856 116.278 146.873 116.221 146.895C116.148 146.922 115.948 146.98 115.555 146.98V156.98ZM123.387 153.914C125.495 151.807 126.473 149.118 126.473 146.258H116.473C116.473 146.545 116.428 146.674 116.414 146.708C116.405 146.733 116.388 146.771 116.316 146.843L123.387 153.914ZM126.473 146.258V127.898H116.473V146.258H126.473ZM132.684 157H127.684V162H132.684V157ZM132.684 127.898V122.898H127.684V127.898H132.684ZM149.773 129.168L147.377 133.556L147.384 133.56L147.392 133.564L149.773 129.168ZM149.715 146.336L152.024 150.771L152.038 150.763L152.053 150.756L149.715 146.336ZM138.816 147.566V142.566H133.816V147.566H138.816ZM138.816 157V162H143.816V157H138.816ZM138.816 142.645H133.816V147.645H138.816V142.645ZM146.941 141.297L143.329 137.84L143.328 137.841L146.941 141.297ZM138.816 132.938V127.938H133.816V132.938H138.816ZM137.684 157V127.898H127.684V157H137.684ZM132.684 132.898H144.129V122.898H132.684V132.898ZM144.129 132.898C145.714 132.898 146.726 133.201 147.377 133.556L152.17 124.78C149.722 123.443 146.971 122.898 144.129 122.898V132.898ZM147.392 133.564C148.156 133.978 148.636 134.476 148.971 135.082L157.724 130.246C156.419 127.884 154.515 126.05 152.155 124.772L147.392 133.564ZM148.971 135.082C149.33 135.73 149.578 136.583 149.578 137.781H159.578C159.578 135.125 159.006 132.566 157.724 130.246L148.971 135.082ZM149.578 137.781C149.578 138.967 149.329 139.795 148.977 140.415L157.679 145.343C158.994 143.02 159.578 140.45 159.578 137.781H149.578ZM148.977 140.415C148.641 141.01 148.157 141.504 147.377 141.916L152.053 150.756C154.424 149.501 156.349 147.691 157.679 145.343L148.977 140.415ZM147.406 141.901C146.705 142.266 145.633 142.566 143.992 142.566V152.566C146.831 152.566 149.573 152.047 152.024 150.771L147.406 141.901ZM143.992 142.566H138.816V152.566H143.992V142.566ZM133.816 147.566V157H143.816V147.566H133.816ZM138.816 152H132.684V162H138.816V152ZM138.816 147.645H142.977V137.645H138.816V147.645ZM142.977 147.645C145.524 147.645 148.405 147.001 150.555 144.753L143.328 137.841C143.416 137.749 143.505 137.681 143.582 137.633C143.657 137.587 143.702 137.572 143.697 137.574C143.675 137.581 143.466 137.645 142.977 137.645V147.645ZM150.553 144.754C152.439 142.784 153.25 140.313 153.25 137.781H143.25C143.25 137.886 143.242 137.95 143.237 137.981C143.232 138.01 143.229 138.011 143.237 137.99C143.245 137.969 143.259 137.938 143.28 137.905C143.301 137.872 143.32 137.85 143.329 137.84L150.553 144.754ZM153.25 137.781C153.25 135.254 152.456 132.738 150.503 130.756L143.38 137.775C143.355 137.75 143.325 137.713 143.295 137.667C143.266 137.621 143.247 137.58 143.237 137.553C143.216 137.496 143.25 137.55 143.25 137.781H153.25ZM150.503 130.756C148.346 128.568 145.493 127.938 142.957 127.938V137.938C143.452 137.938 143.673 138.001 143.71 138.013C143.723 138.017 143.686 138.006 143.618 137.965C143.548 137.923 143.464 137.86 143.38 137.775L150.503 130.756ZM142.957 127.938H138.816V137.938H142.957V127.938ZM133.816 132.938V142.645H143.816V132.938H133.816Z" fill="#009DEF" mask="url(#path-3-outside-1_1665_2)"/>
</g>
</g>
<defs>
<filter id="filter0_d_1665_2" x="10.9688" y="127.508" width="147.609" height="37.8828" filterUnits="userSpaceOnUse" color-interpolation-filters="sRGB">
<feFlood flood-opacity="0" result="BackgroundImageFix"/>
<feColorMatrix in="SourceAlpha" type="matrix" values="0 0 0 0 0 0 0 0 0 0 0 0 0 0 0 0 0 0 127 0" result="hardAlpha"/>
<feOffset dy="4"/>
<feGaussianBlur stdDeviation="2"/>
<feComposite in2="hardAlpha" operator="out"/>
<feColorMatrix type="matrix" values="0 0 0 0 0 0 0 0 0 0 0 0 0 0 0 0 0 0 0.41 0"/>
<feBlend mode="normal" in2="BackgroundImageFix" result="effect1_dropShadow_1665_2"/>
<feBlend mode="normal" in="SourceGraphic" in2="effect1_dropShadow_1665_2" result="shape"/>
</filter>
<linearGradient id="paint0_linear_1665_2" x1="8400" y1="0" x2="8400" y2="16800" gradientUnits="userSpaceOnUse">
<stop stop-color="#2AABEE"/>
<stop offset="1" stop-color="#229ED9"/>
</linearGradient>
<clipPath id="clip0_1665_2">
<rect width="168" height="168" fill="white"/>
</clipPath>
</defs>
</svg>
