<svg width="40" height="40" viewBox="0 0 40 40" fill="none" xmlns="http://www.w3.org/2000/svg">
<path d="M20 0C14.6969 0 9.60625 2.10844 5.85938 5.85781C2.10863 9.60868 0.00103897 14.6956 0 20C0 25.3022 2.10938 30.3928 5.85938 34.1422C9.60625 37.8916 14.6969 40 20 40C25.3031 40 30.3937 37.8916 34.1406 34.1422C37.8906 30.3928 40 25.3022 40 20C40 14.6978 37.8906 9.60719 34.1406 5.85781C30.3937 2.10844 25.3031 0 20 0Z" fill="#05EC1C"/>
<path d="M28.064 23.3439C28.484 22.3142 28.712 21.2119 28.712 20.0005C28.712 19.1282 28.58 18.2924 28.352 17.5171C27.572 17.6988 26.756 17.7957 25.904 17.7957C24.1592 17.7976 22.4395 17.376 20.8898 16.5664C19.3402 15.7568 18.0061 14.583 17 13.1439C15.9237 15.7729 13.8933 17.8875 11.324 19.0556C11.276 19.3584 11.276 19.6855 11.276 20.0005C11.276 21.157 11.5017 22.3022 11.9401 23.3707C12.3785 24.4392 13.0211 25.4101 13.8312 26.2279C15.4673 27.8795 17.6863 28.8074 20 28.8074C21.26 28.8074 22.472 28.5287 23.564 28.0321C24.248 29.3525 24.56 30.0066 24.536 30.0066C22.568 30.6729 21.044 31 20 31C17.096 31 14.324 29.8492 12.284 27.7777C11.0432 26.5289 10.1208 24.9951 9.596 23.3076H8V17.7957H9.308C9.70429 15.8484 10.6154 14.0457 11.9446 12.5789C13.2739 11.1121 14.9716 10.0359 16.8578 9.46459C18.744 8.89324 20.7482 8.848 22.6578 9.3337C24.5674 9.81939 26.3112 10.8179 27.704 12.2232C29.2163 13.7439 30.2478 15.6831 30.668 17.7957H32V23.3076H31.928L27.656 27.2689L21.296 26.542V24.519H27.092L28.064 23.3439ZM16.724 19.7218C17.084 19.7218 17.432 19.8672 17.684 20.1337C17.9373 20.3915 18.0794 20.7398 18.0794 21.1028C18.0794 21.4659 17.9373 21.8142 17.684 22.072C17.432 22.3264 17.084 22.4717 16.724 22.4717C15.968 22.4717 15.356 21.866 15.356 21.1028C15.356 20.3397 15.968 19.7218 16.724 19.7218ZM23.264 19.7218C24.02 19.7218 24.62 20.3397 24.62 21.1028C24.62 21.866 24.02 22.4717 23.264 22.4717C22.508 22.4717 21.896 21.866 21.896 21.1028C21.896 20.7366 22.0401 20.3853 22.2967 20.1263C22.5532 19.8673 22.9012 19.7218 23.264 19.7218Z" fill="white"/>
</svg>
