<svg width="20" height="20" viewBox="0 0 20 20" fill="none" xmlns="http://www.w3.org/2000/svg">
<g clip-path="url(#clip0_1036_233)">
<path fill-rule="evenodd" clip-rule="evenodd" d="M12.0267 2C12.3998 2.00009 12.7634 2.10583 13.0661 2.30225C13.3687 2.49866 13.595 2.7758 13.7129 3.0944L14.1956 4.4H17.1111C17.3469 4.4 17.573 4.48429 17.7397 4.63431C17.9064 4.78434 18 4.98783 18 5.2C18 5.41217 17.9064 5.61566 17.7397 5.76569C17.573 5.91571 17.3469 6 17.1111 6L17.1084 6.0568L16.3378 15.7712C16.2897 16.3765 15.9886 16.9429 15.4951 17.3564C15.0017 17.77 14.3525 17.9999 13.6782 18H6.32178C5.64752 17.9999 4.99832 17.77 4.50486 17.3564C4.0114 16.9429 3.71032 16.3765 3.66222 15.7712L2.89156 6.056C2.88995 6.03737 2.88906 6.01869 2.88889 6C2.65314 6 2.42705 5.91571 2.26035 5.76569C2.09365 5.61566 2 5.41217 2 5.2C2 4.98783 2.09365 4.78434 2.26035 4.63431C2.42705 4.48429 2.65314 4.4 2.88889 4.4H5.80444L6.28711 3.0944C6.40506 2.77567 6.6315 2.49844 6.93431 2.30201C7.23712 2.10558 7.60095 1.99992 7.97422 2H12.0267ZM7.33333 8.4C7.11561 8.40003 6.90548 8.47196 6.74278 8.60217C6.58008 8.73238 6.47614 8.9118 6.45067 9.1064L6.44444 9.2V14C6.4447 14.2039 6.53145 14.4 6.68698 14.5483C6.8425 14.6966 7.05507 14.7858 7.28124 14.7977C7.50741 14.8097 7.73011 14.7435 7.90385 14.6126C8.07759 14.4817 8.18924 14.2961 8.216 14.0936L8.22222 14V9.2C8.22222 8.98783 8.12857 8.78434 7.96187 8.63432C7.79517 8.48429 7.56908 8.4 7.33333 8.4ZM12.6667 8.4C12.4309 8.4 12.2048 8.48429 12.0381 8.63432C11.8714 8.78434 11.7778 8.98783 11.7778 9.2V14C11.7778 14.2122 11.8714 14.4157 12.0381 14.5657C12.2048 14.7157 12.4309 14.8 12.6667 14.8C12.9024 14.8 13.1285 14.7157 13.2952 14.5657C13.4619 14.4157 13.5556 14.2122 13.5556 14V9.2C13.5556 8.98783 13.4619 8.78434 13.2952 8.63432C13.1285 8.48429 12.9024 8.4 12.6667 8.4ZM12.0267 3.6H7.97333L7.67733 4.4H12.3227L12.0267 3.6Z" fill="#FF5C5C"/>
</g>
<defs>
<clipPath id="clip0_1036_233">
<rect width="20" height="20" fill="white"/>
</clipPath>
</defs>
</svg>
