<svg width="40" height="40" viewBox="0 0 40 40" fill="none" xmlns="http://www.w3.org/2000/svg">
<path d="M13.75 7.49999V32.5C13.7498 32.7474 13.823 32.9892 13.9603 33.195C14.0977 33.4007 14.293 33.5611 14.5215 33.6558C14.75 33.7505 15.0015 33.7752 15.2441 33.7269C15.4867 33.6786 15.7095 33.5594 15.8844 33.3844L28.3844 20.8844C28.5006 20.7683 28.5928 20.6304 28.6557 20.4787C28.7186 20.3269 28.751 20.1643 28.751 20C28.751 19.8357 28.7186 19.6731 28.6557 19.5213C28.5928 19.3696 28.5006 19.2317 28.3844 19.1156L15.8844 6.61562C15.7095 6.4406 15.4867 6.32139 15.2441 6.27308C15.0015 6.22477 14.75 6.24952 14.5215 6.34421C14.293 6.4389 14.0977 6.59927 13.9603 6.80501C13.823 7.01076 13.7498 7.25262 13.75 7.49999Z" fill="white"/>
</svg>
