<svg width="28" height="28" viewBox="0 0 28 28" fill="none" xmlns="http://www.w3.org/2000/svg">
<circle cx="14" cy="14" r="10" fill="white"/>
<path d="M14 4C12.0222 4 10.0888 4.58649 8.4443 5.6853C6.79981 6.78412 5.51809 8.3459 4.76121 10.1732C4.00433 12.0004 3.8063 14.0111 4.19215 15.9509C4.578 17.8907 5.53041 19.6725 6.92894 21.0711C8.32746 22.4696 10.1093 23.422 12.0491 23.8078C13.9889 24.1937 15.9996 23.9957 17.8268 23.2388C19.6541 22.4819 21.2159 21.2002 22.3147 19.5557C23.4135 17.9112 24 15.9778 24 14C23.9972 11.3487 22.9427 8.80678 21.068 6.93202C19.1932 5.05727 16.6513 4.0028 14 4ZM17.6846 10.9231H18.6154C18.8194 10.9231 19.0151 11.0041 19.1593 11.1484C19.3036 11.2926 19.3846 11.4883 19.3846 11.6923C19.3846 11.8963 19.3036 12.092 19.1593 12.2362C19.0151 12.3805 18.8194 12.4615 18.6154 12.4615H17.8279C17.7307 13.512 17.245 14.4885 16.4659 15.1998C15.6868 15.9111 14.6704 16.3062 13.6154 16.3077H12.3962L17.549 20.3163C17.6327 20.3769 17.7032 20.4537 17.7565 20.5421C17.8099 20.6305 17.8448 20.7287 17.8594 20.831C17.8739 20.9332 17.8677 21.0373 17.8412 21.1371C17.8147 21.2368 17.7683 21.3302 17.7049 21.4117C17.6415 21.4932 17.5623 21.5611 17.4721 21.6113C17.382 21.6616 17.2826 21.6931 17.1799 21.7042C17.0773 21.7152 16.9734 21.7054 16.8746 21.6755C16.7758 21.6455 16.6841 21.596 16.6048 21.5298L9.68173 16.1452C9.5554 16.0467 9.46295 15.9113 9.41729 15.7578C9.37162 15.6043 9.37502 15.4403 9.427 15.2888C9.47898 15.1373 9.57696 15.0058 9.70726 14.9127C9.83756 14.8195 9.99368 14.7694 10.1538 14.7692H13.6154C14.2627 14.7692 14.8884 14.5358 15.3777 14.112C15.8671 13.6882 16.1873 13.1023 16.2798 12.4615H10.1538C9.94984 12.4615 9.75418 12.3805 9.60992 12.2362C9.46566 12.092 9.38462 11.8963 9.38462 11.6923C9.38462 11.4883 9.46566 11.2926 9.60992 11.1484C9.75418 11.0041 9.94984 10.9231 10.1538 10.9231H16.0471C15.8288 10.4629 15.4845 10.074 15.054 9.80172C14.6236 9.5294 14.1247 9.38476 13.6154 9.38461H10.1538C9.94984 9.38461 9.75418 9.30357 9.60992 9.15931C9.46566 9.01505 9.38462 8.8194 9.38462 8.61538C9.38462 8.41137 9.46566 8.21571 9.60992 8.07146C9.75418 7.9272 9.94984 7.84615 10.1538 7.84615H18.6154C18.8194 7.84615 19.0151 7.9272 19.1593 8.07146C19.3036 8.21571 19.3846 8.41137 19.3846 8.61538C19.3846 8.8194 19.3036 9.01505 19.1593 9.15931C19.0151 9.30357 18.8194 9.38461 18.6154 9.38461H16.8769C17.25 9.83583 17.5251 10.3598 17.6846 10.9231Z" fill="#FF9900"/>
</svg>
