<svg width="40" height="40" viewBox="0 0 40 40" fill="none" xmlns="http://www.w3.org/2000/svg">
<mask id="mask0_1208_120" style="mask-type:luminance" maskUnits="userSpaceOnUse" x="3" y="6" width="34" height="28">
<path d="M23.3334 6.6665H16.6667C10.3817 6.6665 7.23837 6.6665 5.28671 8.61984C3.88004 10.0248 3.48671 12.0482 3.37671 15.4165H36.6234C36.5134 12.0482 36.12 10.0248 34.7134 8.61984C32.7617 6.6665 29.6184 6.6665 23.3334 6.6665ZM16.6667 33.3332H23.3334C29.6184 33.3332 32.7617 33.3332 34.7134 31.3798C36.6667 29.4282 36.6667 26.2848 36.6667 19.9998C36.6667 19.2632 36.6667 18.5698 36.6634 17.9165H3.33671C3.33337 18.5698 3.33337 19.2632 3.33337 19.9998C3.33337 26.2848 3.33337 29.4282 5.28671 31.3798C7.23837 33.3332 10.3817 33.3332 16.6667 33.3332Z" fill="white"/>
<path fill-rule="evenodd" clip-rule="evenodd" d="M8.75 26.6665C8.75 26.335 8.8817 26.017 9.11612 25.7826C9.35054 25.5482 9.66848 25.4165 10 25.4165H16.6667C16.9982 25.4165 17.3161 25.5482 17.5505 25.7826C17.785 26.017 17.9167 26.335 17.9167 26.6665C17.9167 26.998 17.785 27.316 17.5505 27.5504C17.3161 27.7848 16.9982 27.9165 16.6667 27.9165H10C9.66848 27.9165 9.35054 27.7848 9.11612 27.5504C8.8817 27.316 8.75 26.998 8.75 26.6665ZM19.5833 26.6665C19.5833 26.335 19.715 26.017 19.9495 25.7826C20.1839 25.5482 20.5018 25.4165 20.8333 25.4165H23.3333C23.6649 25.4165 23.9828 25.5482 24.2172 25.7826C24.4516 26.017 24.5833 26.335 24.5833 26.6665C24.5833 26.998 24.4516 27.316 24.2172 27.5504C23.9828 27.7848 23.6649 27.9165 23.3333 27.9165H20.8333C20.5018 27.9165 20.1839 27.7848 19.9495 27.5504C19.715 27.316 19.5833 26.998 19.5833 26.6665Z" fill="black"/>
</mask>
<g mask="url(#mask0_1208_120)">
<path d="M0 0H40V40H0V0Z" fill="white"/>
</g>
</svg>
