<svg width="40" height="40" viewBox="0 0 40 40" fill="none" xmlns="http://www.w3.org/2000/svg">
<g clip-path="url(#clip0_1144_23)">
<path d="M20 40C8.955 40 0 31.045 0 20C0 8.955 8.955 0 20 0C31.045 0 40 8.955 40 20C40 31.045 31.045 40 20 40Z" fill="#FB5A01"/>
<path d="M29.5 20.866C29.8094 20.6874 30 20.3573 30 20C30 19.6427 29.8094 19.3126 29.5 19.134L14.5 10.4737C14.1906 10.2951 13.8094 10.2951 13.5 10.4737C13.1906 10.6524 13 10.9825 13 11.3397L13 28.6603C13 29.0175 13.1906 29.3476 13.5 29.5263C13.8094 29.7049 14.1906 29.7049 14.5 29.5263L29.5 20.866Z" fill="#FB5A01" stroke="white" stroke-width="2" stroke-linejoin="round"/>
</g>
<defs>
<clipPath id="clip0_1144_23">
<rect width="40" height="40" fill="white"/>
</clipPath>
</defs>
</svg>
