<svg width="40" height="40" viewBox="0 0 40 40" fill="none" xmlns="http://www.w3.org/2000/svg">
<g clip-path="url(#clip0_1144_9)">
<circle cx="20" cy="20" r="19" stroke="white" stroke-width="2"/>
<path d="M7.94078 23H5.25257V15.7273H7.93723C8.67824 15.7273 9.31626 15.8729 9.8513 16.1641C10.3887 16.4529 10.803 16.8696 11.0942 17.4141C11.3854 17.9562 11.531 18.6049 11.531 19.3601C11.531 20.1177 11.3854 20.7687 11.0942 21.3132C10.8054 21.8577 10.3923 22.2756 9.85485 22.5668C9.31744 22.8556 8.67942 23 7.94078 23ZM7.01039 21.5014H7.87331C8.28051 21.5014 8.62497 21.4328 8.90669 21.2955C9.19078 21.1558 9.40504 20.9297 9.54945 20.6172C9.69623 20.3023 9.76962 19.8833 9.76962 19.3601C9.76962 18.8369 9.69623 18.4202 9.54945 18.1101C9.40267 17.7976 9.18605 17.5727 8.89959 17.4354C8.6155 17.2957 8.26512 17.2259 7.84846 17.2259H7.01039V21.5014ZM12.5573 23V15.7273H17.6283V17.1548H14.3151V18.6463H17.3691V20.0774H14.3151V21.5724H17.6283V23H12.5573ZM18.7291 15.7273H20.906L22.7526 20.2301H22.8378L24.6844 15.7273H26.8612V23H25.1496V18.5327H25.0892L23.3421 22.9538H22.2483L20.5012 18.5078H20.4408V23H18.7291V15.7273ZM34.822 19.3636C34.822 20.1638 34.6681 20.8421 34.3604 21.3984C34.0526 21.9548 33.6359 22.3774 33.1104 22.6662C32.5872 22.955 32 23.0994 31.349 23.0994C30.6956 23.0994 30.1073 22.9538 29.5841 22.6626C29.0609 22.3714 28.6454 21.9489 28.3376 21.3949C28.0322 20.8385 27.8795 20.1615 27.8795 19.3636C27.8795 18.5634 28.0322 17.8852 28.3376 17.3288C28.6454 16.7725 29.0609 16.3499 29.5841 16.0611C30.1073 15.7723 30.6956 15.6278 31.349 15.6278C32 15.6278 32.5872 15.7723 33.1104 16.0611C33.6359 16.3499 34.0526 16.7725 34.3604 17.3288C34.6681 17.8852 34.822 18.5634 34.822 19.3636ZM33.0251 19.3636C33.0251 18.8902 32.9577 18.4901 32.8227 18.1634C32.6901 17.8366 32.4984 17.5893 32.2474 17.4212C31.9988 17.2531 31.6994 17.169 31.349 17.169C31.001 17.169 30.7015 17.2531 30.4506 17.4212C30.1996 17.5893 30.0067 17.8366 29.8717 18.1634C29.7391 18.4901 29.6729 18.8902 29.6729 19.3636C29.6729 19.8371 29.7391 20.2372 29.8717 20.5639C30.0067 20.8906 30.1996 21.138 30.4506 21.3061C30.7015 21.4742 31.001 21.5582 31.349 21.5582C31.6994 21.5582 31.9988 21.4742 32.2474 21.3061C32.4984 21.138 32.6901 20.8906 32.8227 20.5639C32.9577 20.2372 33.0251 19.8371 33.0251 19.3636Z" fill="white"/>
</g>
<defs>
<clipPath id="clip0_1144_9">
<rect width="40" height="40" fill="white"/>
</clipPath>
</defs>
</svg>
