<svg width="40" height="40" viewBox="0 0 40 40" fill="none" xmlns="http://www.w3.org/2000/svg">
<path d="M20.5 37C29.6127 37 37 29.6127 37 20.5C37 11.3873 29.6127 4 20.5 4C11.3873 4 4 11.3873 4 20.5C4 29.6127 11.3873 37 20.5 37Z" fill="white"/>
<path fill-rule="evenodd" clip-rule="evenodd" d="M22.482 21.9264V21.9243C22.3686 21.9325 21.7839 21.9676 20.4793 21.9676C19.4378 21.9676 18.7045 21.9367 18.4467 21.9243V21.9274C14.4372 21.751 11.4445 21.0529 11.4445 20.2176C11.4445 19.3833 14.4372 18.6851 18.4467 18.5057V21.2323C18.7087 21.2509 19.4594 21.2952 20.4969 21.2952C21.7416 21.2952 22.3655 21.2437 22.482 21.2334V18.5078C26.4833 18.6862 29.4687 19.3843 29.4687 20.2176C29.4687 21.0529 26.4833 21.749 22.482 21.9264ZM22.482 18.2242V15.7842H28.0652V12.0635H12.8635V15.7842H18.4467V18.2231C13.9092 18.4314 10.4968 19.3307 10.4968 20.4073C10.4968 21.4839 13.9092 22.3822 18.4467 22.5915V30.4104H22.482V22.5894C27.0123 22.3811 30.4164 21.4829 30.4164 20.4073C30.4164 19.3317 27.0123 18.4335 22.482 18.2242Z" fill="#0085FF"/>
</svg>
