<svg width="40" height="40" viewBox="0 0 40 40" fill="none" xmlns="http://www.w3.org/2000/svg">
<path d="M26.25 7.49999V32.5C26.2502 32.7474 26.177 32.9892 26.0397 33.195C25.9023 33.4007 25.707 33.5611 25.4785 33.6558C25.25 33.7505 24.9985 33.7752 24.7559 33.7269C24.5133 33.6786 24.2905 33.5594 24.1156 33.3844L11.6156 20.8844C11.4994 20.7683 11.4072 20.6304 11.3443 20.4787C11.2814 20.3269 11.249 20.1643 11.249 20C11.249 19.8357 11.2814 19.6731 11.3443 19.5213C11.4072 19.3696 11.4994 19.2317 11.6156 19.1156L24.1156 6.61562C24.2905 6.4406 24.5133 6.32139 24.7559 6.27308C24.9985 6.22477 25.25 6.24952 25.4785 6.34421C25.707 6.4389 25.9023 6.59927 26.0397 6.80501C26.177 7.01076 26.2502 7.25262 26.25 7.49999Z" fill="white"/>
</svg>
