<svg width="26" height="26" viewBox="0 0 26 26" fill="none" xmlns="http://www.w3.org/2000/svg">
<path fill-rule="evenodd" clip-rule="evenodd" d="M13.6483 16.6943C13.4793 16.8899 13.2501 16.9998 13.0111 16.9998C12.7721 16.9998 12.5429 16.8899 12.3739 16.6943L7.27519 10.7932C7.1891 10.697 7.12044 10.5819 7.0732 10.4546C7.02597 10.3274 7.0011 10.1905 7.00006 10.052C6.99902 9.91346 7.02183 9.7761 7.06715 9.6479C7.11247 9.5197 7.17939 9.40323 7.26402 9.30529C7.34864 9.20734 7.44927 9.12989 7.56004 9.07744C7.67081 9.02498 7.78949 8.99859 7.90917 8.9998C8.02884 9.001 8.14711 9.02978 8.25708 9.08445C8.36704 9.13912 8.46649 9.21859 8.54964 9.31822L13.0111 14.4818L17.4726 9.31822C17.6426 9.1282 17.8702 9.02306 18.1066 9.02543C18.3429 9.02781 18.5689 9.13752 18.736 9.33092C18.9032 9.52433 18.9979 9.78597 19 10.0595C19.0021 10.333 18.9112 10.5965 18.747 10.7932L13.6483 16.6943Z" fill="white"/>
</svg>
