<svg width="28" height="28" viewBox="0 0 28 28" fill="none" xmlns="http://www.w3.org/2000/svg">
<path d="M14 24C19.5228 24 24 19.5228 24 14C24 8.47715 19.5228 4 14 4C8.47715 4 4 8.47715 4 14C4 19.5228 8.47715 24 14 24Z" fill="#26A17B"/>
<path fill-rule="evenodd" clip-rule="evenodd" d="M15.2013 14.8647V14.8635C15.1325 14.8685 14.7781 14.8897 13.9875 14.8897C13.3562 14.8897 12.9119 14.871 12.7556 14.8635V14.8653C10.3256 14.7585 8.51187 14.3353 8.51187 13.8291C8.51187 13.3235 10.3256 12.9003 12.7556 12.7916V14.4441C12.9144 14.4553 13.3694 14.4822 13.9981 14.4822C14.7525 14.4822 15.1306 14.451 15.2013 14.4447V12.7928C17.6263 12.901 19.4356 13.3241 19.4356 13.8291C19.4356 14.3353 17.6263 14.7572 15.2013 14.8647ZM15.2013 12.621V11.1422H18.585V8.88721H9.37188V11.1422H12.7556V12.6203C10.0056 12.7466 7.9375 13.2916 7.9375 13.9441C7.9375 14.5966 10.0056 15.141 12.7556 15.2678V20.0066H15.2013V15.2666C17.9469 15.1403 20.01 14.596 20.01 13.9441C20.01 13.2922 17.9469 12.7478 15.2013 12.621Z" fill="white"/>
</svg>
