<svg width="26" height="26" viewBox="0 0 26 26" fill="none" xmlns="http://www.w3.org/2000/svg">
<g clip-path="url(#clip0_520_270)">
<path fill-rule="evenodd" clip-rule="evenodd" d="M16.6946 12.3517C16.8901 12.5207 17 12.7499 17 12.9889C17 13.2279 16.8901 13.4571 16.6946 13.6261L10.7935 18.7248C10.6972 18.8109 10.5821 18.8796 10.4549 18.9268C10.3276 18.9741 10.1907 18.9989 10.0522 19C9.91371 19.001 9.77635 18.9782 9.64815 18.9329C9.51995 18.8876 9.40348 18.8206 9.30553 18.736C9.20759 18.6514 9.13013 18.5508 9.07768 18.44C9.02523 18.3292 8.99884 18.2105 9.00004 18.0909C9.00124 17.9712 9.03002 17.8529 9.08469 17.743C9.13936 17.633 9.21883 17.5335 9.31846 17.4504L14.4821 12.9889L9.31846 8.52746C9.12844 8.35747 9.0233 8.12979 9.02568 7.89347C9.02805 7.65715 9.13776 7.4311 9.33117 7.26399C9.52458 7.09688 9.78621 7.00209 10.0597 7.00003C10.3332 6.99798 10.5967 7.08883 10.7935 7.25301L16.6946 12.3517Z" fill="white"/>
</g>
<defs>
<clipPath id="clip0_520_270">
<rect width="26" height="26" fill="white"/>
</clipPath>
</defs>
</svg>
