<svg width="26" height="26" viewBox="0 0 26 26" fill="none" xmlns="http://www.w3.org/2000/svg">
<path d="M3.33119 6.44516C3.33119 6.44516 2.02104 6.54875 1.84635 6.84328C1.66963 7.13782 1.65947 7.59078 1.65947 8.08844C1.65947 8.58813 1.63916 9.73375 1.63916 9.73375L1.95197 10.4061C1.95197 10.4061 2.01088 18.9759 2.01088 19.242C2.01088 19.5061 2.01088 19.8291 2.39275 20.0342C2.77463 20.2394 12.4799 24.9275 12.7826 25.0534C13.2396 25.2423 13.457 25.1713 13.457 25.1713L24.2409 7.13579C24.2409 7.13579 24.2063 6.64219 23.7574 6.52438C23.4995 6.45938 3.33119 6.44516 3.33119 6.44516Z" fill="#F5B03E"/>
<path d="M13.3412 12.3744C13.1767 12.8273 13.2518 17.5114 13.2803 20.9178C13.3087 24.3222 13.1929 25.027 13.2803 25.1448C13.3676 25.2627 13.6053 25.1489 14.2776 24.8503C15.5268 24.2978 21.5271 21.3281 21.9679 21.0641C22.4087 20.8 23.4853 20.2536 23.662 19.9591C23.8387 19.6645 23.9342 16.9244 23.9931 14.7245C24.052 12.5227 24.1109 10.7616 24.1109 10.7616L24.375 9.96937C24.375 9.96937 24.3181 7.82843 24.3079 7.59281C24.2896 7.20281 24.247 7.00172 24.1475 7.05047C24.0053 7.1175 22.819 8.09047 19.6787 9.61797C17.7064 10.5747 13.455 12.0616 13.3412 12.3744Z" fill="#E07F14"/>
<path d="M13.3698 2.27702C12.4903 2.2364 10.0833 3.62781 7.76358 4.38952C5.44389 5.15124 1.94202 6.68281 1.91155 6.77218C1.88311 6.85952 3.32124 7.50343 4.23936 7.94421C5.33014 8.46624 9.4942 10.4386 10.2559 10.7616C11.0197 11.0845 12.8397 11.8401 13.1322 11.8178C13.5425 11.7894 17.4181 10.2619 19.3844 9.32343C21.3506 8.38499 23.8084 6.93062 23.8409 6.57718C23.8551 6.41874 20.2253 5.0639 18.4155 4.24531C14.9217 2.66296 14.0137 2.30749 13.3698 2.27702Z" fill="#FDD717"/>
<path d="M1.64955 10.1095C1.68002 10.4914 1.88924 10.6275 2.42143 10.8591C2.95361 11.0906 13.0144 16.317 13.246 16.317C13.4775 16.317 13.5466 15.4883 13.2927 15.5106C13.1546 15.5228 9.84971 13.9527 6.76221 12.3845C4.14189 11.0561 1.6333 9.72969 1.6333 9.72969L1.64955 10.1095Z" fill="#E37D14"/>
<path d="M24.3769 9.9511C24.3769 9.9511 13.6336 15.4152 13.5279 15.468C13.4223 15.5208 13.2537 15.5025 13.2537 15.5025L13.2456 16.317C13.2456 16.317 13.3451 16.3394 13.4569 16.3048C13.5219 16.2845 24.0661 10.8266 24.1128 10.8103C24.1595 10.7941 24.3626 10.6722 24.4053 10.4142C24.4419 10.207 24.3769 9.9511 24.3769 9.9511Z" fill="#BA5E0D"/>
<path d="M5.86207 19.7884L7.96441 22.9166L8.88457 23.2314C8.88457 23.2314 8.95973 19.8189 8.99019 17.29C9.03285 13.5952 9.0166 10.2253 9.06941 10.0344C9.15676 9.71141 13.2457 8.385 13.2457 8.385C13.2457 8.385 17.8647 9.83329 18.011 10.1563C18.076 10.2984 18.0252 12.6913 18.011 15.4802C17.9927 19.0023 17.9988 23.0689 17.9988 23.0689C17.9988 23.0689 18.4761 23.0669 18.533 22.8902C18.5919 22.7134 18.8275 21.3505 18.8275 21.3505L20.6191 9.40875L21.5291 8.23469L20.2657 5.82969L15.0819 3.27844L13.3005 3.6786L11.3729 3.38407L5.25879 7.77766L5.97176 9.22391L7.72066 10.1156L5.86207 19.7884Z" fill="#AF0F1B"/>
<path d="M18.5411 10.0323C18.4294 10.2781 18.4944 22.943 18.4944 22.943C18.4944 22.943 19.053 22.6342 19.772 22.2889C20.487 21.9456 21.0009 21.7323 21.0456 21.5536C21.0903 21.3748 21.1695 8.85016 21.1695 8.85016L18.5411 10.0323Z" fill="#DC0D28"/>
<path d="M8.3991 9.77031C8.46613 9.84344 8.35645 22.9856 8.22035 23.0161C8.1127 23.0425 5.66504 21.9497 5.66504 21.838C5.66504 21.7262 5.86207 9.16703 5.86207 9.16703C5.86207 9.16703 8.20004 9.54687 8.3991 9.77031ZM13.2497 2.89453C12.5733 2.89453 11.8258 3.0875 11.6085 3.65422C11.3911 4.22094 11.3424 5.06391 11.3424 5.69359C11.3424 6.29688 11.2449 7.84062 13.1035 7.81625C14.9621 7.79187 15.0169 7.10328 15.0454 5.58391C15.0697 4.31641 14.9011 3.70094 14.7325 3.43687C14.5822 3.19922 14.0825 2.89453 13.2497 2.89453Z" fill="#FF2A23"/>
<path d="M12.1753 6.03078C12.5978 6.05516 12.7786 5.12688 13.1036 4.61907C13.4286 4.11328 13.7678 3.77407 13.646 3.51C13.5464 3.29063 12.6628 3.21953 12.1855 3.88375C11.8503 4.35297 11.7914 6.00844 12.1753 6.03078Z" fill="#FCC9D2"/>
<path d="M14.895 3.33532C14.895 3.33532 15.4942 3.94469 15.6506 5.13907C15.8071 6.33344 15.6263 7.26173 15.6263 7.26173C15.6263 7.26173 18.6041 7.17235 19.6319 7.36938C20.6455 7.56641 20.9989 8.01329 20.9989 8.33829C20.9989 8.66329 20.3327 8.92532 19.6563 8.87657C18.9799 8.82782 18.5228 8.79126 18.4375 8.96188C18.3522 9.13251 18.4741 9.39657 19.4146 9.46766C20.355 9.54079 21.4417 9.40672 21.7789 8.23672C22.1161 7.06672 22.1283 5.03954 22.0085 3.57907C21.8886 2.1186 21.6245 1.28376 20.9705 0.966882C20.2819 0.635788 18.5574 0.580944 16.9283 1.49704C15.2992 2.41313 14.895 3.33532 14.895 3.33532Z" fill="#FF2A23"/>
<path d="M18.2689 1.94593C18.0577 1.67374 17.3772 1.68187 17.0136 2.10234C16.6277 2.54921 16.5424 4.24937 17.038 4.34687C17.5986 4.45656 17.4971 3.53843 17.9074 2.97171C18.3096 2.41718 18.4741 2.21203 18.2689 1.94593Z" fill="#FCC9D2"/>
<path d="M11.4524 3.39422C11.4524 3.39422 9.17126 0.735318 6.56517 0.775943C4.99705 0.800318 4.59892 1.70422 4.51361 2.07797C4.4283 2.45172 3.7783 6.16891 4.64564 8.18188C5.51298 10.1948 7.31267 9.67282 7.59501 9.60782C7.95658 9.52251 8.72642 9.25844 8.6533 8.98016C8.58017 8.70188 6.02283 9.70329 5.99845 8.55766C5.97408 7.41204 7.8083 7.29016 8.6533 7.26579C9.4983 7.24141 10.9466 7.43438 10.9466 7.43438C10.9466 7.43438 10.6927 6.04704 10.8613 5.05782C11.0299 4.0686 11.4524 3.39422 11.4524 3.39422Z" fill="#FF2A23"/>
<path d="M5.86618 1.74077C5.54118 2.07796 5.40712 4.02187 5.61228 4.98671C5.81743 5.95156 5.99821 6.36187 6.42071 6.27859C6.77415 6.20749 6.98743 4.31437 7.15603 3.64812C7.33681 2.93718 7.78368 2.18156 7.6029 1.85046C7.32665 1.34265 6.2054 1.38937 5.86618 1.74077Z" fill="#FCC9D2"/>
</svg>
