<svg width="26" height="26" viewBox="0 0 26 26" fill="none" xmlns="http://www.w3.org/2000/svg">
<g clip-path="url(#clip0_548_67)">
<path fill-rule="evenodd" clip-rule="evenodd" d="M16.6946 12.3517C16.8902 12.5207 17 12.7499 17 12.9889C17 13.2279 16.8902 13.4571 16.6946 13.6261L10.7935 18.7248C10.6973 18.8109 10.5822 18.8796 10.4549 18.9268C10.3276 18.9741 10.1908 18.9989 10.0522 19C9.91374 19.001 9.77638 18.9782 9.64818 18.9329C9.51998 18.8876 9.40351 18.8206 9.30556 18.736C9.20762 18.6514 9.13016 18.5508 9.07771 18.44C9.02526 18.3292 8.99887 18.2105 9.00007 18.0909C9.00127 17.9712 9.03005 17.8529 9.08472 17.743C9.13939 17.633 9.21886 17.5335 9.31849 17.4504L14.4821 12.9889L9.31849 8.52746C9.12847 8.35747 9.02333 8.12979 9.02571 7.89347C9.02808 7.65715 9.13779 7.4311 9.3312 7.26399C9.52461 7.09688 9.78624 7.00209 10.0598 7.00003C10.3333 6.99798 10.5968 7.08883 10.7935 7.25301L16.6946 12.3517Z" fill="#333333"/>
</g>
<defs>
<clipPath id="clip0_548_67">
<rect width="26" height="26" fill="white"/>
</clipPath>
</defs>
</svg>
