<svg width="70" height="70" viewBox="0 0 70 70" fill="none" xmlns="http://www.w3.org/2000/svg">
<circle cx="35" cy="35" r="35" fill="white"/>
<circle cx="35" cy="37" r="30" fill="#FFF3CA"/>
<path d="M30.7451 18.6094C30.7451 16.1168 32.7736 14.0883 35.2662 14.0883C37.7588 14.0883 39.7873 16.1168 39.7873 18.6094C39.7873 21.102 37.7588 23.1305 35.2662 23.1305C32.7736 23.1305 30.7451 21.1055 30.7451 18.6094ZM33.3748 18.6094C33.3748 19.6535 34.2221 20.5008 35.2662 20.5008C36.3104 20.5008 37.1576 19.6535 37.1576 18.6094C37.1576 17.5652 36.3104 16.718 35.2662 16.718C34.2221 16.718 33.3748 17.5688 33.3748 18.6094Z" fill="#E2A610"/>
<path d="M39.1545 16.3172C39.1545 16.3172 39.3549 17.1152 38.4303 17.5512C37.5057 17.9836 36.8939 17.6637 36.8939 17.6637C37.0592 17.9449 37.1576 18.2648 37.1576 18.6129C37.1576 19.657 36.3104 20.5043 35.2662 20.5043C34.2221 20.5043 33.3748 19.657 33.3748 18.6129C33.3748 18.5074 33.3994 18.1102 33.5682 17.7797C32.0002 18.525 30.8084 17.8887 30.8084 17.8887C30.7697 18.1242 30.7451 18.3668 30.7451 18.6129C30.7451 21.1055 32.7736 23.134 35.2662 23.134C37.7588 23.134 39.7873 21.1055 39.7873 18.6094C39.7873 17.7727 39.5553 16.9887 39.1545 16.3172Z" fill="#9E740B"/>
<path d="M15.6774 46.3828C18.0574 44.0449 19.541 43.2574 20.1457 39.8684C20.7504 36.4793 20.2653 29.3391 22.9301 24.6633C25.3629 20.3813 29.8278 18.6094 34.1836 18.6094C34.2891 18.6094 34.3945 18.6164 34.5 18.6164C34.6055 18.6129 34.711 18.6094 34.8164 18.6094C39.1723 18.6094 43.6371 20.3812 46.0699 24.6598C48.7313 29.3391 48.2496 36.4793 48.8543 39.8648C49.459 43.2539 50.9426 44.0414 53.3227 46.3793C54.3492 47.3883 55.5903 48.9949 55.5938 50.0285C55.5973 51.0621 55.0699 51.4383 53.8149 51.9656C50.2641 53.4598 45.518 54.9082 34.5 54.9082C23.482 54.9082 18.736 53.4598 15.1852 51.9656C13.9301 51.4383 13.4028 51.0656 13.4063 50.0285C13.4098 48.9984 14.6508 47.3918 15.6774 46.3828Z" fill="#FFCA28"/>
<path d="M51.9727 50.1023C51.9727 48.5449 44.1504 47.2828 34.5 47.2828C24.8496 47.2828 17.0273 48.5449 17.0273 50.1023C17.0273 51.6598 24.8496 53.5195 34.5 53.5195C44.1504 53.5195 51.9727 51.6598 51.9727 50.1023Z" fill="#4E342E"/>
<path d="M44.9908 27.7465C45.1209 28.2422 45.2299 28.7379 45.3178 29.2231C45.7643 31.7051 45.6834 34.2504 45.8838 36.7641C46.1545 40.1285 46.7522 41.9004 48.1127 43.4824C48.292 43.6898 48.1092 44.0098 47.8385 43.9676C46.0209 43.6898 44.5619 43.4121 42.899 42.3152C40.417 40.6805 39.8053 37.6043 39.7877 34.841C39.7596 30.7277 39.8369 26.7445 39.51 25.2328C39.0565 23.127 38.6346 22.0055 37.9455 20.9824C36.8944 19.4215 40.976 21.5871 41.6158 22.0688C43.3983 23.4152 44.4213 25.5809 44.9908 27.7465Z" fill="#E2A610"/>
<path d="M22.8595 33.2062C22.8173 30.5414 22.8384 27.7852 23.9002 25.3383C24.5365 23.8758 25.6158 22.5574 26.9939 21.7383C28.0767 21.0949 30.2775 20.3848 31.0685 21.8437C31.2267 22.1355 31.29 22.4766 31.3006 22.8105C31.3287 23.9742 30.724 25.05 30.1369 26.0555C28.4002 29.0367 27.7076 32.2957 26.79 35.6004C26.4138 36.9644 25.9357 38.325 25.1166 39.4781C24.5541 40.2691 21.4216 43.0816 22.1388 40.5398C22.8279 38.0824 22.8982 35.7656 22.8595 33.2062Z" fill="#FFF59D"/>
<path d="M37.6955 49.5539C37.692 48.9492 37.365 48.6012 36.6127 48.341C35.0518 47.8031 33.0971 47.9016 31.958 48.5133C30.7627 49.1531 31.5924 52.7004 34.4998 52.7004C37.4072 52.7004 37.699 50.0145 37.6955 49.5539Z" fill="#E2A610"/>
<path d="M23.6894 44.2699C20.6027 44.8113 18.3667 45.982 17.4 46.9313C16.6335 47.6801 16.6335 48.2707 17.9835 47.6555C18.9996 47.1914 22.255 46.2492 25.1062 45.9645C30.0035 45.4723 33.0269 45.4617 33.5296 45.4723C34.7074 45.4969 34.8058 44.5898 32.4257 44.2699C30.0457 43.9535 26.7761 43.732 23.6894 44.2699ZM33.2554 52.0148C33.6632 52.2961 34.2046 52.4332 34.6617 52.2434C35.1187 52.0535 35.414 51.4734 35.189 51.034C35.1011 50.8617 34.95 50.7316 34.7988 50.6121C34.3804 50.2852 33.9164 50.018 33.4242 49.8211C33.2308 49.7438 33.0269 49.6734 32.816 49.6875C32.6085 49.6981 32.3906 49.807 32.3097 50.0004C31.9617 50.7914 32.6578 51.607 33.2554 52.0148Z" fill="#FFF59D"/>
</svg>
