<svg width="30" height="30" viewBox="0 0 30 30" fill="none" xmlns="http://www.w3.org/2000/svg">
<path d="M15.3855 3.10666C15.269 3.03686 15.1358 3 15 3C14.8642 3 14.731 3.03686 14.6145 3.10666L4.455 9.20116C4.23 9.33616 4.026 9.49816 3.8475 9.68116L15 16.3772L26.1525 9.68566C25.9713 9.49893 25.7666 9.33657 25.5435 9.20266L15.3855 3.10666ZM26.895 10.9877L15.3855 17.8937C15.269 17.9634 15.1358 18.0003 15 18.0003C14.8642 18.0003 14.731 17.9634 14.6145 17.8937L3.105 10.9847C3.03529 11.2419 2.99998 11.5072 3 11.7737V21.7502C3 22.7447 3.39509 23.6985 4.09835 24.4018C4.80161 25.1051 5.75544 25.5002 6.75 25.5002H23.25C24.2446 25.5002 25.1984 25.1051 25.9016 24.4018C26.6049 23.6985 27 22.7447 27 21.7502V11.7752C27 11.5052 26.964 11.2412 26.895 10.9877Z" fill="#0C95F9"/>
</svg>
