<svg width="30" height="30" viewBox="0 0 30 30" fill="none" xmlns="http://www.w3.org/2000/svg">
<mask id="mask0_1055_338" style="mask-type:luminance" maskUnits="userSpaceOnUse" x="2" y="2" width="26" height="26">
<path d="M2 2H28V28H2V2Z" fill="white"/>
<path fill-rule="evenodd" clip-rule="evenodd" d="M22.9999 11.9229H6.99988V22.9229H22.9999V11.9229ZM6.99988 10.9229C6.73466 10.9229 6.48031 11.0282 6.29277 11.2157C6.10523 11.4033 5.99988 11.6576 5.99988 11.9229V22.9229C5.99988 23.1881 6.10523 23.4424 6.29277 23.63C6.48031 23.8175 6.73466 23.9229 6.99988 23.9229H22.9999C23.2651 23.9229 23.5194 23.8175 23.707 23.63C23.8945 23.4424 23.9999 23.1881 23.9999 22.9229V11.9229C23.9999 11.6576 23.8945 11.4033 23.707 11.2157C23.5194 11.0282 23.2651 10.9229 22.9999 10.9229H6.99988Z" fill="black"/>
<path fill-rule="evenodd" clip-rule="evenodd" d="M11 14.4233C11 14.2907 11.0527 14.1635 11.1465 14.0697C11.2402 13.976 11.3674 13.9233 11.5 13.9233H18.5C18.6326 13.9233 18.7598 13.976 18.8536 14.0697C18.9474 14.1635 19 14.2907 19 14.4233C19 14.5559 18.9474 14.6831 18.8536 14.7768C18.7598 14.8706 18.6326 14.9233 18.5 14.9233H11.5C11.3674 14.9233 11.2402 14.8706 11.1465 14.7768C11.0527 14.6831 11 14.5559 11 14.4233ZM10 17.4233C10 17.2907 10.0527 17.1635 10.1465 17.0697C10.2402 16.976 10.3674 16.9233 10.5 16.9233H19.5C19.6326 16.9233 19.7598 16.976 19.8536 17.0697C19.9474 17.1635 20 17.2907 20 17.4233C20 17.5559 19.9474 17.6831 19.8536 17.7768C19.7598 17.8706 19.6326 17.9233 19.5 17.9233H10.5C10.3674 17.9233 10.2402 17.8706 10.1465 17.7768C10.0527 17.6831 10 17.5559 10 17.4233ZM11 20.4233C11 20.2907 11.0527 20.1635 11.1465 20.0697C11.2402 19.976 11.3674 19.9233 11.5 19.9233H18.5C18.6326 19.9233 18.7598 19.976 18.8536 20.0697C18.9474 20.1635 19 20.2907 19 20.4233C19 20.5559 18.9474 20.6831 18.8536 20.7768C18.7598 20.8706 18.6326 20.9233 18.5 20.9233H11.5C11.3674 20.9233 11.2402 20.8706 11.1465 20.7768C11.0527 20.6831 11 20.5559 11 20.4233ZM16.768 7.39828C16.5359 7.16606 16.2603 6.98186 15.9569 6.85618C15.6535 6.7305 15.3284 6.66581 15 6.66581C14.6717 6.66581 14.3465 6.7305 14.0432 6.85618C13.7398 6.98186 13.4642 7.16606 13.232 7.39828L9.35403 11.2773C9.30761 11.3238 9.25249 11.3607 9.19181 11.3858C9.13113 11.411 9.06608 11.424 9.00039 11.4241C8.93469 11.4241 8.86963 11.4112 8.80891 11.3861C8.7482 11.361 8.69302 11.3242 8.64653 11.2778C8.55265 11.184 8.49985 11.0568 8.49976 10.9241C8.49971 10.8584 8.5126 10.7934 8.5377 10.7327C8.5628 10.6719 8.59961 10.6168 8.64603 10.5703L12.526 6.69028C13.1824 6.03413 14.0725 5.66553 15.0005 5.66553C15.9286 5.66553 16.8187 6.03413 17.475 6.69028L21.354 10.5703C21.4478 10.6642 21.5004 10.7915 21.5003 10.9241C21.5002 11.0568 21.4474 11.184 21.3535 11.2778C21.307 11.3242 21.2519 11.361 21.1912 11.3861C21.1304 11.4112 21.0654 11.4241 20.9997 11.4241C20.867 11.424 20.7398 11.3712 20.646 11.2773L16.768 7.39828Z" fill="black"/>
</mask>
<g mask="url(#mask0_1055_338)">
<path d="M15 28C22.1797 28 28 22.1797 28 15C28 7.8203 22.1797 2 15 2C7.8203 2 2 7.8203 2 15C2 22.1797 7.8203 28 15 28Z" fill="#0C95F9"/>
</g>
</svg>
