<svg width="26" height="26" viewBox="0 0 26 26" fill="none" xmlns="http://www.w3.org/2000/svg">
<path d="M19 17.1487C18.2404 17.1487 17.5552 17.4451 17.0356 17.9223L9.91 13.7495C9.9652 13.523 10 13.2868 10 13.0458C10 12.8048 9.9652 12.5698 9.91 12.3433L16.96 8.21147C17.512 8.73368 18.2416 9.02461 19 9.02482C20.6548 9.02482 22 7.67406 22 6.01241C22 4.35076 20.6548 3 19 3C17.3452 3 16 4.35076 16 6.01241C16 6.2534 16.0348 6.48958 16.09 6.71491L9.04 10.8467C8.48771 10.325 7.75825 10.0342 7 10.0334C5.3452 10.0334 4 11.3841 4 13.0458C4 14.7074 5.3452 16.0582 7 16.0582C7.75837 16.058 8.48804 15.7671 9.04 15.2449L16.1656 19.4176C16.1131 19.633 16.0861 19.8538 16.0852 20.0756C16.0854 20.6541 16.2565 21.2196 16.5767 21.7005C16.897 22.1814 17.352 22.5562 17.8844 22.7775C18.4167 22.9988 19.0024 23.0567 19.5675 22.9437C20.1326 22.8308 20.6516 22.5522 21.059 22.1431C21.4664 21.734 21.7439 21.2128 21.8564 20.6454C21.9688 20.078 21.9112 19.4898 21.6908 18.9553C21.4705 18.4208 21.0972 17.9638 20.6183 17.6423C20.1393 17.3207 19.5762 17.1489 19 17.1487Z" fill="#333333"/>
</svg>
