<svg width="26" height="26" viewBox="0 0 26 26" fill="none" xmlns="http://www.w3.org/2000/svg">
<path d="M18.0736 10.0588H16.1429V4.17647C16.1429 3.52941 15.5964 3 14.9286 3H10.0714C9.40357 3 8.85714 3.52941 8.85714 4.17647V10.0588H6.92643C5.84571 10.0588 5.29929 11.3294 6.06429 12.0706L11.6379 17.4706C12.1114 17.9294 12.8764 17.9294 13.35 17.4706L18.9236 12.0706C19.6886 11.3294 19.1543 10.0588 18.0736 10.0588ZM4 21.8235C4 22.4706 4.54643 23 5.21429 23H19.7857C20.4536 23 21 22.4706 21 21.8235C21 21.1765 20.4536 20.6471 19.7857 20.6471H5.21429C4.54643 20.6471 4 21.1765 4 21.8235Z" fill="#333333"/>
</svg>
