<svg width="26" height="26" viewBox="0 0 26 26" fill="none" xmlns="http://www.w3.org/2000/svg">
<path d="M13 11.8889C13.6111 11.8889 14.1344 11.6715 14.57 11.2367C15.0056 10.8019 15.223 10.2785 15.2222 9.66667C15.2222 9.05555 15.0048 8.53259 14.57 8.09778C14.1352 7.66296 13.6119 7.44518 13 7.44444C12.3889 7.44444 11.8659 7.66222 11.4311 8.09778C10.9963 8.53333 10.7785 9.0563 10.7778 9.66667C10.7778 10.2778 10.9956 10.8011 11.4311 11.2367C11.8667 11.6722 12.3896 11.8896 13 11.8889ZM7.44444 11.6667V7.44444H5.22222V8.55555C5.22222 9.25926 5.42593 9.8937 5.83333 10.4589C6.24074 11.0241 6.77778 11.4267 7.44444 11.6667ZM18.5556 11.6667C19.2222 11.4259 19.7593 11.023 20.1667 10.4578C20.5741 9.89259 20.7778 9.25852 20.7778 8.55555V7.44444H18.5556V11.6667ZM11.8889 20.7778V17.3333C10.9815 17.1296 10.1715 16.7456 9.45889 16.1811C8.7463 15.6167 8.22296 14.9081 7.88889 14.0556C6.5 13.8889 5.33815 13.2826 4.40333 12.2367C3.46852 11.1907 3.00074 9.9637 3 8.55555V7.44444C3 6.83333 3.21778 6.31037 3.65333 5.87555C4.08889 5.44074 4.61185 5.22296 5.22222 5.22222H7.44444C7.44444 4.61111 7.66222 4.08815 8.09778 3.65333C8.53333 3.21852 9.0563 3.00074 9.66667 3H16.3333C16.9444 3 17.4678 3.21778 17.9033 3.65333C18.3389 4.08889 18.5563 4.61185 18.5556 5.22222H20.7778C21.3889 5.22222 21.9122 5.44 22.3478 5.87555C22.7833 6.31111 23.0007 6.83407 23 7.44444V8.55555C23 9.96296 22.5322 11.19 21.5967 12.2367C20.6611 13.2833 19.4993 13.8896 18.1111 14.0556C17.7778 14.9074 17.2548 15.6159 16.5422 16.1811C15.8296 16.7463 15.0193 17.1304 14.1111 17.3333V20.7778H17.4444C17.7593 20.7778 18.0233 20.8844 18.2367 21.0978C18.45 21.3111 18.5563 21.5748 18.5556 21.8889C18.5556 22.2037 18.4489 22.4678 18.2356 22.6811C18.0222 22.8944 17.7585 23.0007 17.4444 23H8.55556C8.24074 23 7.97704 22.8933 7.76444 22.68C7.55185 22.4667 7.44518 22.203 7.44444 21.8889C7.44444 21.5741 7.55111 21.3104 7.76444 21.0978C7.97778 20.8852 8.24148 20.7785 8.55556 20.7778H11.8889Z" fill="#333333"/>
</svg>
