<svg width="26" height="26" viewBox="0 0 26 26" fill="none" xmlns="http://www.w3.org/2000/svg">
<path d="M23 7.61538V23H13.7692V7.61538H16.8462C17.0625 7.61538 17.2628 7.57532 17.4471 7.49519C17.6314 7.41506 17.7917 7.30689 17.9279 7.17067C18.0641 7.03446 18.1763 6.87019 18.2644 6.67788C18.3526 6.48558 18.3926 6.28526 18.3846 6.07692C18.3846 5.86058 18.3446 5.66026 18.2644 5.47596C18.1843 5.29167 18.0761 5.13141 17.9399 4.99519C17.8037 4.85897 17.6394 4.74679 17.4471 4.65865C17.2548 4.57051 17.0545 4.53045 16.8462 4.53846C16.4215 4.53846 16.0248 4.61859 15.6562 4.77885C15.2877 4.9391 14.9591 5.15946 14.6707 5.4399C14.3822 5.72035 14.1619 6.04487 14.0096 6.41346C13.8574 6.78205 13.7772 7.18269 13.7692 7.61538H12.2308C12.2308 7.19071 12.1506 6.79407 11.9904 6.42548C11.8301 6.05689 11.6098 5.72837 11.3293 5.4399C11.0489 5.15144 10.7244 4.93109 10.3558 4.77885C9.98718 4.6266 9.58654 4.54647 9.15385 4.53846C8.9375 4.53846 8.73718 4.57853 8.55288 4.65865C8.36859 4.73878 8.20833 4.84696 8.07212 4.98317C7.9359 5.11939 7.82372 5.28365 7.73558 5.47596C7.64744 5.66827 7.60737 5.86859 7.61538 6.07692C7.61538 6.29327 7.65545 6.49359 7.73558 6.67788C7.81571 6.86218 7.92388 7.02244 8.0601 7.15865C8.19631 7.29487 8.36058 7.40705 8.55288 7.49519C8.74519 7.58333 8.94551 7.6234 9.15385 7.61538H12.2308V23H3V7.61538H6.50962C6.22917 7.14263 6.08894 6.62981 6.08894 6.07692C6.08894 5.65224 6.16907 5.25561 6.32933 4.88702C6.48958 4.51843 6.70593 4.1899 6.97837 3.90144C7.2508 3.61298 7.57532 3.39263 7.95192 3.24038C8.32853 3.08814 8.72917 3.00801 9.15385 3C9.93109 3 10.6562 3.18029 11.3293 3.54087C12.0024 3.90144 12.5593 4.41026 13 5.06731C13.4327 4.41827 13.9856 3.91346 14.6587 3.55288C15.3317 3.19231 16.0609 3.00801 16.8462 3C17.2708 3 17.6675 3.08013 18.0361 3.24038C18.4046 3.40064 18.7332 3.62099 19.0216 3.90144C19.3101 4.18189 19.5304 4.50641 19.6827 4.875C19.8349 5.24359 19.9151 5.64423 19.9231 6.07692C19.9231 6.34936 19.887 6.61378 19.8149 6.87019C19.7428 7.1266 19.6346 7.375 19.4904 7.61538H23Z" fill="#333333"/>
</svg>
