<svg width="26" height="26" viewBox="0 0 26 26" fill="none" xmlns="http://www.w3.org/2000/svg">
<path d="M20.5 7.74913H4.875V7.11367L18.625 5.99528V7.11367H20.5V5.20731C20.5 3.80932 19.3862 2.82818 18.0262 3.02517L5.475 4.84765C4.11375 5.04591 3 6.35113 3 7.74913V20.4582C3 21.1323 3.26339 21.7788 3.73223 22.2555C4.20107 22.7322 4.83696 23 5.5 23H20.5C21.163 23 21.7989 22.7322 22.2678 22.2555C22.7366 21.7788 23 21.1323 23 20.4582V10.2909C23 9.61681 22.7366 8.97029 22.2678 8.49361C21.7989 8.01692 21.163 7.74913 20.5 7.74913ZM18.625 16.6531C18.3787 16.653 18.1348 16.6036 17.9073 16.5077C17.6797 16.4118 17.473 16.2712 17.2989 16.0941C17.1248 15.917 16.9867 15.7067 16.8925 15.4753C16.7984 15.2439 16.7499 14.9959 16.75 14.7455C16.7501 14.495 16.7987 14.2471 16.893 14.0157C16.9873 13.7844 17.1256 13.5742 17.2998 13.3972C17.474 13.2202 17.6808 13.0798 17.9084 12.984C18.136 12.8883 18.3799 12.839 18.6263 12.8391C19.1237 12.8393 19.6007 13.0403 19.9523 13.3981C20.304 13.7559 20.5014 14.241 20.5012 14.7467C20.5011 15.2525 20.3033 15.7375 19.9515 16.095C19.5996 16.4525 19.1224 16.6533 18.625 16.6531Z" fill="white"/>
</svg>
