<svg width="26" height="26" viewBox="0 0 26 26" fill="none" xmlns="http://www.w3.org/2000/svg">
<path d="M11.2979 16.5305L11.2924 16.5175C11.1802 16.4911 11.0688 16.462 10.9581 16.4303L10.9497 16.4275C9.8903 16.1234 8.91199 15.587 8.08599 14.8573C7.17728 14.0556 6.47847 13.0439 6.05048 11.9102C5.62249 10.7766 5.47832 9.55543 5.63055 8.35327C5.78278 7.15111 6.22677 6.00445 6.92383 5.01325C7.62088 4.02206 8.54983 3.21643 9.62967 2.66661C10.7095 2.11679 11.9075 1.83948 13.1191 1.85886C14.3307 1.87824 15.5191 2.19371 16.5808 2.77777C17.6425 3.36184 18.5452 4.19676 19.2102 5.20974C19.8753 6.22271 20.2824 7.38299 20.3961 8.5894C20.4323 8.9729 20.1175 9.28583 19.7321 9.28583C19.3477 9.28583 19.0404 8.9729 18.9958 8.59033C18.873 7.53481 18.4738 6.53041 17.8384 5.67866C17.203 4.82691 16.354 4.158 15.3773 3.73955C14.4005 3.32109 13.3306 3.16793 12.2756 3.29555C11.2207 3.42316 10.2181 3.82702 9.36932 4.46631C8.52051 5.1056 7.85551 5.95765 7.44156 6.93634C7.02761 7.91503 6.87937 8.98565 7.01184 10.04C7.14431 11.0943 7.55278 12.095 8.19597 12.9409C8.83916 13.7867 9.69427 14.4478 10.6749 14.8573L10.712 14.873C10.8977 14.9492 11.089 15.016 11.284 15.0745C11.4483 14.6774 11.7454 14.3496 12.1244 14.1469C12.5034 13.9443 12.941 13.8794 13.3626 13.9633C13.7841 14.0472 14.1635 14.2747 14.436 14.6071C14.7086 14.9394 14.8574 15.356 14.8571 15.7858C14.8575 16.2126 14.7109 16.6266 14.442 16.958C14.173 17.2894 13.7981 17.518 13.3803 17.6054C12.9626 17.6928 12.5275 17.6337 12.1482 17.4379C11.7689 17.2421 11.4687 16.9217 11.2979 16.5305ZM10.3823 17.7117C8.73311 17.198 7.27066 16.212 6.17592 14.8758C5.4978 14.9553 4.87246 15.281 4.41866 15.7911C3.96485 16.3012 3.7142 16.9602 3.71428 17.643V18.3069C3.71428 21.7593 7.62356 24.143 13 24.143C18.3764 24.143 22.2857 21.6284 22.2857 18.3069V17.643C22.2857 16.9042 21.9922 16.1956 21.4698 15.6732C20.9474 15.1508 20.2388 14.8573 19.5 14.8573H16.1153C16.3344 15.5909 16.2874 16.3782 15.9827 17.0806C15.678 17.7829 15.1351 18.3552 14.4497 18.6964C13.7644 19.0376 12.9806 19.126 12.2365 18.9458C11.4924 18.7657 10.8357 18.3286 10.3823 17.7117ZM17.6428 9.28583C17.6428 7.88183 17.0207 6.62361 16.0355 5.77211C15.5412 5.34568 14.9625 5.02829 14.3372 4.84066C13.7119 4.65304 13.054 4.59939 12.4066 4.68323C11.7591 4.76707 11.1367 4.9865 10.5798 5.32721C10.0229 5.66792 9.54411 6.12224 9.17471 6.66052C8.8053 7.1988 8.55357 7.80894 8.43594 8.4511C8.31831 9.09326 8.33743 9.75301 8.49205 10.3873C8.64667 11.0215 8.93332 11.6161 9.33328 12.1321C9.73324 12.648 10.2375 13.0739 10.8132 13.3818C11.4108 12.8364 12.191 12.5346 13 12.5358C13.8093 12.5348 14.5897 12.8365 15.1877 13.3818C15.9296 12.9854 16.5498 12.395 16.9822 11.6736C17.4147 10.9522 17.643 10.1269 17.6428 9.28583Z" fill="#333333"/>
</svg>
